<?xml version="1.0"?>
<svg xmlns:rdf="http://www.w3.org/1999/02/22-rdf-syntax-ns#" xmlns="http://www.w3.org/2000/svg" xmlns:cc="http://creativecommons.org/ns#" xmlns:xlink="http://www.w3.org/1999/xlink" xmlns:dc="http://purl.org/dc/elements/1.1/" id="svg21969" viewBox="0 0 594.13 621.44" version="1.1">
  <defs id="defs21971">
    <filter id="filter10111" color-interpolation-filters="sRGB">
      <feGaussianBlur id="feGaussianBlur10113" stdDeviation="3.8482547"/>
    </filter>
    <linearGradient id="linearGradient9700">
      <stop id="stop9702" stop-color="#f3d89e" offset="0"/>
      <stop id="stop9704" stop-color="#f3d89e" stop-opacity="0" offset="1"/>
    </linearGradient>
    <linearGradient id="linearGradient9722">
      <stop id="stop9724" stop-color="#6e4115" offset="0"/>
      <stop id="stop9726" stop-color="#6e4115" stop-opacity="0" offset="1"/>
    </linearGradient>
    <filter id="filter9832" height="1.1098" width="1.357" y="-.054924" x="-.17849" color-interpolation-filters="sRGB">
      <feGaussianBlur id="feGaussianBlur9834" stdDeviation="3.7871225"/>
    </filter>
    <filter id="filter10086" color-interpolation-filters="sRGB">
      <feGaussianBlur id="feGaussianBlur10088" stdDeviation="0.52629525"/>
    </filter>
    <filter id="filter9854" height="1.0513" width="1.752" y="-.025636" x="-.376" color-interpolation-filters="sRGB">
      <feGaussianBlur id="feGaussianBlur9856" stdDeviation="0.734375"/>
    </filter>
    <filter id="filter9884" height="1.1059" width="2.5533" y="-.052954" x="-.77665" color-interpolation-filters="sRGB">
      <feGaussianBlur id="feGaussianBlur9886" stdDeviation="1.5169032"/>
    </filter>
    <filter id="filter9936" color-interpolation-filters="sRGB">
      <feGaussianBlur id="feGaussianBlur9938" stdDeviation="0.90197799"/>
    </filter>
    <filter id="filter10294" color-interpolation-filters="sRGB">
      <feGaussianBlur id="feGaussianBlur10296" stdDeviation="0.47014145"/>
    </filter>
    <radialGradient id="radialGradient23796" xlink:href="#linearGradient9700" gradientUnits="userSpaceOnUse" cy="-4051.7" cx="-239.39" gradientTransform="matrix(.49827 -.045077 .14477 1.6628 473.85 2677.3)" r="123.44"/>
    <radialGradient id="radialGradient23798" xlink:href="#linearGradient9700" gradientUnits="userSpaceOnUse" cy="-4051.7" cx="-239.39" gradientTransform="matrix(.33754 -.045077 .098071 1.6628 243.53 2677.3)" r="123.44"/>
    <radialGradient id="radialGradient23800" xlink:href="#linearGradient9700" gradientUnits="userSpaceOnUse" cy="-4051.7" cx="-239.39" gradientTransform="matrix(.20574 -.045077 .059777 1.6628 58.004 2677.3)" r="123.44"/>
    <radialGradient id="radialGradient23802" xlink:href="#linearGradient9700" gradientUnits="userSpaceOnUse" cy="-4051.7" cx="-239.39" gradientTransform="matrix(.11573 -.045077 .033624 1.6628 -70.791 2677.3)" r="123.44"/>
    <radialGradient id="radialGradient23804" xlink:href="#linearGradient9722" gradientUnits="userSpaceOnUse" cy="-3865.3" cx="-230.54" gradientTransform="matrix(1.4758 -.072579 .016230 .33001 173.27 -2651.3)" r="129.17"/>
    <radialGradient id="radialGradient23806" xlink:href="#linearGradient9722" gradientUnits="userSpaceOnUse" cy="-3865.3" cx="-230.54" gradientTransform="matrix(1.4758 -.076566 .016230 .34813 173.27 -2583.2)" r="129.17"/>
    <radialGradient id="radialGradient23808" xlink:href="#linearGradient9722" gradientUnits="userSpaceOnUse" cy="-3884.4" cx="-235.62" gradientTransform="matrix(1.4947 -.068490 .016437 .31141 176.97 -2727.4)" r="129.17"/>
    <radialGradient id="radialGradient23810" gradientUnits="userSpaceOnUse" cy="-4081.4" cx="-234.38" gradientTransform="matrix(.76122 .14346 -.24592 1.3049 -1059.7 1278.9)" r="28.125">
      <stop id="stop9742" stop-color="#fff" offset="0"/>
      <stop id="stop9744" stop-color="#fff" stop-opacity="0" offset="1"/>
    </radialGradient>
    <linearGradient id="linearGradient23812" y2="-4043" gradientUnits="userSpaceOnUse" x2="-232.81" y1="-4049.2" x1="-81.25">
      <stop id="stop9768" stop-color="#fff" offset="0"/>
      <stop id="stop9770" stop-color="#fff" stop-opacity="0" offset="1"/>
    </linearGradient>
    <linearGradient id="linearGradient23814" y2="-3754.7" gradientUnits="userSpaceOnUse" x2="-207.03" gradientTransform="translate(-21.875,-125)" y1="-3782.8" x1="-199.22">
      <stop id="stop9894" stop-color="#edd298" offset="0"/>
      <stop id="stop9896" stop-color="#edd298" stop-opacity="0" offset="1"/>
    </linearGradient>
    <linearGradient id="linearGradient23816" y2="-3762.5" gradientUnits="userSpaceOnUse" x2="-206.25" gradientTransform="translate(-21.875,-125)" y1="-3779.7" x1="-196.09">
      <stop id="stop9967" stop-color="#fff" offset="0"/>
      <stop id="stop9969" stop-color="#fff" stop-opacity="0" offset="1"/>
    </linearGradient>
  </defs>
  <g id="layer1" transform="translate(-125.53 160.83)">
    <g id="g23205" transform="matrix(2.1361 .12474 -.12474 2.1361 1289 9133.4)">
      <g id="g23207" transform="translate(-411.01 -141.42)">
        <path id="path23209" d="m-229.26-3966.1c111.2-3.0216 153.97 32.38 112.52 50.937-33.839 15.15-92.187 22.788-120.17 23.072-71.187 0.7204-144.42-30.879-113.86-51.679 21.061-14.331 72.802-21.006 121.51-22.33zm-57.342-168.54c27.701-17.569 80.059-19.286 106.51 0 16.506 12.121 20.357 12.388 6.4503 69.856-2.5106 46.55 25.756 97.355 65.826 118.38-73.62-30.991-155.07-27.465-242.19 1.0635 54.345-35.692 59.798-72.448 61.311-117.71-14.751-61.204-10.085-64.115 2.0892-71.59z" transform="matrix(.99656 0 0 .99241 -3.7218 -29.522)" filter="url(#filter10111)" stroke="#000" stroke-width="3.931"/>
        <path id="path23211" d="m-230.04-3975.4c111.15 5.0523 153.01 41.352 114.41 58.87-46.83 21.254-93.52 24.522-121.51 24.838-71.187 0.8028-148.7-29.761-114.41-55.745 42.457-32.176 44.677-31.455 121.51-27.963z"/>
        <path id="path23213" fill="#a07237" d="m-289.89-4135.4c27.969-17.569 80.834-19.286 107.54 0 16.666 12.121 20.554 12.388 6.5128 69.856-2.5348 46.55 26.005 97.355 66.463 118.38-74.332-30.991-156.57-27.465-244.53 1.0635 54.871-35.692 60.377-72.448 61.904-117.71-14.894-61.204-10.183-64.115 2.1094-71.59z"/>
        <path id="path23215" fill="url(#radialGradient23796)" d="m-288.16-4135.4c27.701-17.569 80.059-19.286 106.51 0 16.506 12.121 20.357 12.388 6.4503 69.856-2.5106 46.55 25.756 97.355 65.826 118.38-73.62-30.991-155.07-27.465-242.19 1.0635 54.345-35.692 59.798-72.448 61.311-117.71-14.751-61.204-10.085-64.115 2.0892-71.59z"/>
        <path id="path23217" fill="url(#radialGradient23798)" d="m-272.68-4135.4c18.765-17.569 54.234-19.286 72.153 0 11.181 12.121 13.79 12.388 4.3696 69.856-1.7007 46.55 17.448 97.355 44.591 118.38-49.871-30.991-105.05-27.465-164.06 1.0635 36.815-35.692 40.509-72.448 41.533-117.71-9.9928-61.204-6.8321-64.115 1.4152-71.59z"/>
        <path id="path23219" fill="url(#radialGradient23800)" d="m-256.63-4135.4c11.438-17.569 33.057-19.286 43.979 0 6.8153 12.121 8.4055 12.388 2.6634 69.856-1.0366 46.55 10.635 97.355 27.18 118.38-30.398-30.991-64.028-27.465-100 1.0635 22.439-35.692 24.691-72.448 25.315-117.71-6.0908-61.204-4.1643-64.115 0.86261-71.59z"/>
        <path id="path23221" fill="url(#radialGradient23802)" d="m-247.77-4135.4c6.4338-17.569 18.594-19.286 24.738 0 3.8336 12.121 4.7281 12.388 1.4981 69.856-0.58309 46.55 5.9821 97.355 15.289 118.38-17.099-30.991-36.016-27.465-56.25 1.0635 12.622-35.692 13.889-72.448 14.24-117.71-3.4261-61.204-2.3424-64.115 0.48522-71.59z"/>
        <path id="path23223" fill="url(#radialGradient23804)" d="m-230.04-3975.4c111.15 5.0523 153.01 41.352 114.41 58.87-46.83 21.254-93.52 24.522-121.51 24.838-71.187 0.8028-148.7-29.761-114.41-55.745 42.457-32.176 44.677-31.455 121.51-27.963z"/>
        <path id="path23225" fill="url(#radialGradient23806)" d="m-230.04-3980c111.15 5.3298 153.01 43.623 114.41 62.104-46.83 22.422-93.52 25.869-121.51 26.202-71.187 0.8469-148.7-31.396-114.41-58.807 42.457-33.944 44.677-33.183 121.51-29.499z"/>
        <path id="path23227" fill="url(#radialGradient23808)" d="m-231.5-3977c112.57 4.7676 154.97 39.022 115.87 55.554-47.429 20.057-94.717 23.141-123.06 23.439-72.098 0.7575-150.6-28.084-115.87-52.604 43-30.364 45.249-29.683 123.06-26.388z"/>
        <path id="path23229" fill="url(#radialGradient23810)" d="m-246.21-4119.8c6.4338-4.8077 18.594-5.2774 24.738 0 3.8336 3.3169 14.103 6.5149 10.873 22.241-0.58309 12.738-3.3929 23.515 5.9135 29.269-23.349 35.269-34.453 29.984-56.25 0.291 12.622-9.7669 6.0762-18.262 6.4274-30.648-3.4261-16.748 5.4701-19.107 8.2977-21.153z"/>
        <path id="path23231" fill="url(#linearGradient23812)" d="m-175.41-4117.6c-18.028 1.5679-37.354 5.1-50.938 18.094-4.6514 12.448 0.84815 25.714 2.625 38.25 4.3654 15.206 6.3407 31.284 3.4447 46.989-1.4811 13.342-4.1854 26.756-9.5384 39.105 29.117-0.6382 58.35 2.5454 86.469 9.9688-26.686-27.797-43.039-67.05-38.406-105.94 3.3002-15.292 9.2084-30.571 6.9062-46.5l-0.5625 0.031z"/>
        <path id="path23233" filter="url(#filter9832)" d="m-278.53-4137.8c-13.781 3.3608-21.489 18.587-20.625 32.062-0.98615 11.689 6.6542 21.945 6.5938 33.469 2.2543 15.605 1.1489 31.752 1.0938 47.563-1.6861 16.183-12.217 28.865-19.375 42.844-4.4165 4.7638-2.3707 6.3746 3.7717 5.6147 6.2461-9.5482 11.802-20.114 17.385-30.115 5.6329-10.063 6.6303-21.545 5.9788-32.906 0.0689-15.349 0.47075-30.825-3.5413-45.562-6.1925-14.694-6.9758-34.022 4.5625-46.344 2.8341-2.9044 5.7795-5.8433 9.875-6.875-1.9593-0.1911-3.8933-0.825-5.7188 0.25z" fill="#44250c"/>
        <g id="g23235" filter="url(#filter10086)" transform="matrix(1.0396 0 0 1.0344 9.0935 136.33)">
          <g id="g23239" transform="translate(-.78125 -25.781)">
            <path id="path23241" d="m-228.91-3906.3c-2.708-0.05-5.3319 0.8239-7.5938 2.2813-0.53586 2.8593-0.10476 5.8351 1.6562 8.5 4.3757 7.6399 15.603 8.9988 23.062 4.875 0.95152-8.6668-7.738-16.319-16.156-15.594-0.3255-0.032-0.64541-0.056-0.96875-0.062z"/>
            <path id="path23243" d="m-228.72-3907.1c-10.416-1.0394-19.955 11.77-13.938 20.875 6.5181 11.381 28.263 8.8317 30.062-5.0313 1.1509-8.7703-7.6249-16.576-16.125-15.844z"/>
            <path id="path23245" d="m-209.38-3893c0 9.4924-8.5696 17.188-19.141 17.188s-19.141-7.6951-19.141-17.188c0-9.4924 8.5696-17.188 19.141-17.188s19.141 7.6951 19.141 17.188z"/>
            <path id="path23247" d="m-228.91-3935.3h1.1459v31.984h-1.1459z"/>
            <path id="path23249" d="m-229.69-3942.7h4.6875v45.884h-4.6875z"/>
            <path id="path23251" d="m-232.81-3942.7h10.938v45.884h-10.938z"/>
          </g>
        </g>
        <g id="g23253">
          <g id="g23255" transform="matrix(1 0 0 .66740 -.78125 -1320.3)">
            <path id="path23257" fill="#44250c" d="m-232.81-3968h10.938v68.75h-10.938z"/>
            <path id="path23259" filter="url(#filter9854)" d="m-229.69-3968h4.6875v68.75h-4.6875z" fill="#9f703a"/>
            <path id="path23261" filter="url(#filter9884)" d="m-207.81-3843h4.6875v68.75h-4.6875z" fill="#ff0" transform="matrix(.24447 0 0 .69705 -178.1 -1278.1)"/>
          </g>
          <g id="g23263" transform="translate(-.78125 -25.781)">
            <path id="path23265" d="m-187.5-3768a19.141 17.188 0 1 1 -38.281 0 19.141 17.188 0 1 1 38.281 0z" fill="#603812" transform="translate(-21.875,-125)"/>
            <path id="path23267" filter="url(#filter9936)" d="m-228.72-3907.1c-10.416-1.0394-19.955 11.77-13.938 20.875 6.5181 11.381 28.263 8.8317 30.062-5.0313 1.1509-8.7703-7.6249-16.576-16.125-15.844z" fill="url(#linearGradient23814)"/>
            <path id="path23269" fill="url(#linearGradient23816)" d="m-228.91-3906.3c-2.708-0.05-5.3319 0.8239-7.5938 2.2813-0.53586 2.8593-0.10476 5.8351 1.6562 8.5 4.3757 7.6399 15.603 8.9988 23.062 4.875 0.95152-8.6668-7.738-16.319-16.156-15.594-0.3255-0.032-0.64541-0.056-0.96875-0.062z"/>
          </g>
        </g>
        <path id="path23271" d="m-230.04-3966.8c111.2-3.0216 153.97 32.38 112.52 50.937-33.839 15.15-92.187 22.788-120.17 23.072-71.187 0.7204-144.42-30.879-113.86-51.679 21.061-14.331 72.802-21.006 121.51-22.33z" stroke="#986c3e" stroke-width="3.931" fill="none"/>
      </g>
      <path id="path23273" fill="#482b0e" d="m-644.12-4311.7c-10.984 0-19.906 7.1834-19.906 16.031 0 1.3342 0.20374 2.6291 0.58721 3.8666 0.22478 3.5725 5.1974 6.9961 5.6628 0.6334 0-8.2546 6.1851-14.938 13.812-14.938 7.6274 0 13.812 6.683 13.812 14.938-1.6231 6.0511 7.3759 2.9822 5.1701-0.1905 0.4793-1.3694 0.73612-2.8142 0.73612-4.3095 0-8.8479-8.8915-16.031-19.875-16.031z"/>
      <path id="path23275" filter="url(#filter10294)" d="m-644.54-4312.2c-10.933-0.2137-20.851 11.351-17.125 22.094-0.008 1.3067 2.1608 4.1917 2.9688 1.9063 0.68074-4.0904 0.51628-8.4354 2.9062-12.062 3.4401-6.5692 12.47-10.402 19.062-5.9688 6.268 3.8179 8.6608 11.703 8.3125 18.594 1.5839 1.3709 4.2694-1.302 2.9375-2.9688 3.5731-10.668-6.5792-22.025-17.406-21.594-0.55255-0.044-1.1036-0.033-1.6562 0z" fill="#f1dcb0"/>
    </g>
  </g>
  <metadata>
    <rdf:RDF>
      <cc:Work>
        <dc:format>image/svg+xml</dc:format>
        <dc:type rdf:resource="http://purl.org/dc/dcmitype/StillImage"/>
        <cc:license rdf:resource="http://creativecommons.org/licenses/publicdomain/"/>
        <dc:publisher>
          <cc:Agent rdf:about="http://openclipart.org/">
            <dc:title>Openclipart</dc:title>
          </cc:Agent>
        </dc:publisher>
      </cc:Work>
      <cc:License rdf:about="http://creativecommons.org/licenses/publicdomain/">
        <cc:permits rdf:resource="http://creativecommons.org/ns#Reproduction"/>
        <cc:permits rdf:resource="http://creativecommons.org/ns#Distribution"/>
        <cc:permits rdf:resource="http://creativecommons.org/ns#DerivativeWorks"/>
      </cc:License>
    </rdf:RDF>
  </metadata>
</svg>
