<?xml version="1.0" encoding="UTF-8" standalone="no"?>
<!-- Created with Inkscape (http://www.inkscape.org/) -->

<svg
   xmlns:dc="http://purl.org/dc/elements/1.1/"
   xmlns:cc="http://creativecommons.org/ns#"
   xmlns:rdf="http://www.w3.org/1999/02/22-rdf-syntax-ns#"
   xmlns:svg="http://www.w3.org/2000/svg"
   xmlns="http://www.w3.org/2000/svg"
   xmlns:xlink="http://www.w3.org/1999/xlink"
   xmlns:sodipodi="http://sodipodi.sourceforge.net/DTD/sodipodi-0.dtd"
   xmlns:inkscape="http://www.inkscape.org/namespaces/inkscape"
   width="700"
   height="700"
   id="svg2"
   version="1.1"
   inkscape:version="0.48.4 r9939"
   sodipodi:docname="circle ring.svg">
  <sodipodi:namedview
     id="base"
     pagecolor="#d2d2d2"
     bordercolor="#666666"
     borderopacity="1.0"
     inkscape:pageopacity="1"
     inkscape:pageshadow="2"
     inkscape:zoom="0.7571428571428567"
     inkscape:cx="349.9999999999999"
     inkscape:cy="350.0000000000002"
     inkscape:document-units="px"
     inkscape:current-layer="layer1"
     showgrid="false"
     borderlayer="true"
     inkscape:showpageshadow="false"
     units="px"
     inkscape:object-nodes="true"
     inkscape:snap-smooth-nodes="true"
     inkscape:window-width="1366"
     inkscape:window-height="709"
     inkscape:window-x="0"
     inkscape:window-y="27"
     inkscape:window-maximized="1"
     showguides="true"
     inkscape:guide-bbox="true"
     inkscape:snap-bbox="false"
     inkscape:bbox-paths="true"
     inkscape:snap-nodes="true" />
  <defs
     id="defs4">
    <linearGradient
       id="linearGradient9287">
      <stop
         id="stop9289"
         offset="0"
         style="stop-color:#141718;stop-opacity:1;" />
      <stop
         style="stop-color:#396ea8;stop-opacity:1;"
         offset="0.2567275167"
         id="stop9291" />
      <stop
         id="stop9293"
         offset="0.6567987204"
         style="stop-color:#0a244a;stop-opacity:1;" />
      <stop
         style="stop-color:#11181d;stop-opacity:1;"
         offset="0.8490301371"
         id="stop9295" />
      <stop
         id="stop9297"
         offset="1"
         style="stop-color:#0c0e12;stop-opacity:1;" />
    </linearGradient>
    <linearGradient
       id="linearGradient5316">
      <stop
         id="stop5318"
         offset="0"
         style="stop-color:#a9a9a9;stop-opacity:1;" />
      <stop
         id="stop5320"
         offset="1"
         style="stop-color:#666666;stop-opacity:1;" />
    </linearGradient>
    <linearGradient
       id="linearGradient5267">
      <stop
         style="stop-color:#141718;stop-opacity:1;"
         offset="0"
         id="stop5269" />
      <stop
         id="stop5271"
         offset="0.2567275167"
         style="stop-color:#396ea8;stop-opacity:1;" />
      <stop
         style="stop-color:#0a244a;stop-opacity:1;"
         offset="0.4515207708"
         id="stop5273" />
      <stop
         id="stop5275"
         offset="0.8490301371"
         style="stop-color:#11181d;stop-opacity:1;" />
      <stop
         style="stop-color:#0c0e12;stop-opacity:1;"
         offset="1"
         id="stop5277" />
    </linearGradient>
    <linearGradient
       id="linearGradient5181">
      <stop
         id="stop5183"
         offset="0"
         style="stop-color:#a8b5b7;stop-opacity:1;" />
      <stop
         style="stop-color:#d6ddde;stop-opacity:1;"
         offset="0.33567518"
         id="stop5191" />
      <stop
         id="stop5193"
         offset="0.4515207708"
         style="stop-color:#f0fbfd;stop-opacity:1;" />
      <stop
         style="stop-color:#c4d8dc;stop-opacity:1;"
         offset="0.8490301371"
         id="stop5189" />
      <stop
         id="stop5185"
         offset="1"
         style="stop-color:#e6eaee;stop-opacity:1" />
    </linearGradient>
    <radialGradient
       gradientUnits="userSpaceOnUse"
       gradientTransform="matrix(1.149633088943947,0,0,0.9907578197677146,-55.12255040036077,7.80108992259261)"
       r="299.9999999999898"
       fy="679.1781005859375"
       fx="374.5354919433594"
       cy="679.1781005859375"
       cx="374.5354919433594"
       id="radialGradient5187"
       xlink:href="#linearGradient5181"
       inkscape:collect="always" />
    <radialGradient
       gradientUnits="userSpaceOnUse"
       gradientTransform="matrix(1,0,0,0.9539341920258234,0,32.99149226986117)"
       r="300"
       fy="716.1817626953125"
       fx="350"
       cy="716.1817626953125"
       cx="350"
       id="radialGradient5285"
       xlink:href="#linearGradient5267"
       inkscape:collect="always" />
    <radialGradient
       gradientTransform="matrix(1.000000070640072,-1.000000000000002,0.9999999999999989,1.000000070640068,-702.3620852708994,349.999950385095)"
       gradientUnits="userSpaceOnUse"
       r="350"
       fy="702.362060546875"
       fx="350"
       cy="702.362060546875"
       cx="350"
       id="radialGradient5322"
       xlink:href="#linearGradient5316"
       inkscape:collect="always" />
    <linearGradient
       id="linearGradient4804">
      <stop
         style="stop-color:#00030f;stop-opacity:1"
         offset="0"
         id="stop4806" />
      <stop
         id="stop5362"
         offset="0.3274336159"
         style="stop-color:#303c97;stop-opacity:1;" />
      <stop
         style="stop-color:#6872bc;stop-opacity:1;"
         offset="0.4442399442"
         id="stop5368" />
      <stop
         style="stop-color:#a1a8e2;stop-opacity:1;"
         offset="0.6637167931"
         id="stop5364" />
      <stop
         id="stop5366"
         offset="0.8690578938"
         style="stop-color:#5f6ef0;stop-opacity:1;" />
      <stop
         style="stop-color:#1e35ff;stop-opacity:1;"
         offset="1"
         id="stop4808" />
    </linearGradient>
    <linearGradient
       inkscape:collect="always"
       id="linearGradient4812">
      <stop
         style="stop-color:#5a6c6c;stop-opacity:1"
         offset="0"
         id="stop4814" />
      <stop
         style="stop-color:#ecefef;stop-opacity:1"
         offset="1"
         id="stop4816" />
    </linearGradient>
    <linearGradient
       id="linearGradient5786"
       inkscape:collect="always">
      <stop
         id="stop5788"
         offset="0"
         style="stop-color:#b2bfbf;stop-opacity:1" />
      <stop
         id="stop5790"
         offset="1"
         style="stop-color:#fdfdfd;stop-opacity:1" />
    </linearGradient>
    <linearGradient
       inkscape:collect="always"
       xlink:href="#linearGradient4804"
       id="linearGradient8892"
       gradientUnits="userSpaceOnUse"
       x1="1765.598876953125"
       y1="320.5482177734375"
       x2="2189.489501953125"
       y2="514.5184936523438" />
    <linearGradient
       inkscape:collect="always"
       xlink:href="#linearGradient4812"
       id="linearGradient8894"
       gradientUnits="userSpaceOnUse"
       x1="2117.233642578125"
       y1="505.9423828125"
       x2="2022.315673828125"
       y2="352.9294738769531" />
    <linearGradient
       inkscape:collect="always"
       xlink:href="#linearGradient5786"
       id="linearGradient8896"
       gradientUnits="userSpaceOnUse"
       x1="1646.478393554688"
       y1="369.1159057617188"
       x2="2172.67919921875"
       y2="421.4598083496094" />
    <linearGradient
       inkscape:collect="always"
       xlink:href="#linearGradient4804"
       id="linearGradient8898"
       gradientUnits="userSpaceOnUse"
       x1="2047.83642578125"
       y1="605.7633056640625"
       x2="2011.593139648438"
       y2="306.2004699707031" />
    <linearGradient
       id="linearGradient5181-0">
      <stop
         id="stop5183-7"
         offset="0"
         style="stop-color:#a8b5b7;stop-opacity:1;" />
      <stop
         style="stop-color:#d6ddde;stop-opacity:1;"
         offset="0.33567518"
         id="stop5191-5" />
      <stop
         id="stop5193-6"
         offset="0.4515207708"
         style="stop-color:#f0fbfd;stop-opacity:1;" />
      <stop
         style="stop-color:#c4d8dc;stop-opacity:1;"
         offset="0.8490301371"
         id="stop5189-8" />
      <stop
         id="stop5185-5"
         offset="1"
         style="stop-color:#e6eaee;stop-opacity:1" />
    </linearGradient>
    <radialGradient
       r="300"
       fy="679.1781005859375"
       fx="374.5354919433594"
       cy="679.1781005859375"
       cx="374.5354919433594"
       gradientTransform="matrix(1.149633088943947,0,0,0.9907578197677146,-55.12255040036072,7.801089922592553)"
       gradientUnits="userSpaceOnUse"
       id="radialGradient9178"
       xlink:href="#linearGradient5181-0"
       inkscape:collect="always" />
    <radialGradient
       gradientUnits="userSpaceOnUse"
       gradientTransform="matrix(1,0,0,0.9539341920258234,0,32.99149226986117)"
       r="300"
       fy="716.1817626953125"
       fx="350"
       cy="716.1817626953125"
       cx="350"
       id="radialGradient5285-8"
       xlink:href="#linearGradient9287"
       inkscape:collect="always" />
    <radialGradient
       r="300"
       fy="676.5921020507812"
       fx="410.2804260253906"
       cy="676.5921020507812"
       cx="410.2804260253906"
       gradientTransform="matrix(1.149633088943947,0,0,0.9907578197677146,-55.12255040036072,7.801089922592553)"
       gradientUnits="userSpaceOnUse"
       id="radialGradient9178-4"
       xlink:href="#linearGradient5181-0-2"
       inkscape:collect="always" />
    <linearGradient
       id="linearGradient5181-0-2">
      <stop
         id="stop5183-7-2"
         offset="0"
         style="stop-color:#a8b5b7;stop-opacity:1;" />
      <stop
         style="stop-color:#d6ddde;stop-opacity:1;"
         offset="0.33567518"
         id="stop5191-5-9" />
      <stop
         id="stop5193-6-6"
         offset="0.4515207708"
         style="stop-color:#f0fbfd;stop-opacity:1;" />
      <stop
         style="stop-color:#c4d8dc;stop-opacity:1;"
         offset="0.8490301371"
         id="stop5189-8-4" />
      <stop
         id="stop5185-5-9"
         offset="1"
         style="stop-color:#e6eaee;stop-opacity:1" />
    </linearGradient>
    <radialGradient
       inkscape:collect="always"
       xlink:href="#linearGradient5316"
       id="radialGradient9304"
       gradientUnits="userSpaceOnUse"
       gradientTransform="matrix(1.000000070640072,-1.000000000000002,0.9999999999999989,1.000000070640068,-702.3620852708994,349.999950385095)"
       cx="350"
       cy="702.362060546875"
       fx="350"
       fy="702.362060546875"
       r="350" />
    <radialGradient
       inkscape:collect="always"
       xlink:href="#linearGradient9287"
       id="radialGradient9306"
       gradientUnits="userSpaceOnUse"
       gradientTransform="matrix(1,0,0,0.9539341920258234,0,32.99149226986117)"
       cx="350"
       cy="716.1817626953125"
       fx="350"
       fy="716.1817626953125"
       r="300" />
    <radialGradient
       inkscape:collect="always"
       xlink:href="#linearGradient5181-0-2"
       id="radialGradient9308"
       gradientUnits="userSpaceOnUse"
       gradientTransform="matrix(1.149633088943947,0,0,0.9907578197677146,-55.12255040036072,7.801089922592553)"
       cx="410.2804260253906"
       cy="676.5921020507812"
       fx="410.2804260253906"
       fy="676.5921020507812"
       r="300" />
    <radialGradient
       inkscape:collect="always"
       xlink:href="#linearGradient5181-0-2"
       id="radialGradient9311"
       gradientUnits="userSpaceOnUse"
       gradientTransform="matrix(1.149633088943947,0,0,0.9907578197677146,-55.12255040036072,7.801089922592553)"
       cx="410.2804260253906"
       cy="676.5921020507812"
       fx="410.2804260253906"
       fy="676.5921020507812"
       r="300" />
    <radialGradient
       inkscape:collect="always"
       xlink:href="#linearGradient9287"
       id="radialGradient9314"
       gradientUnits="userSpaceOnUse"
       gradientTransform="matrix(1,0,0,0.9539341920258234,0,32.99149226986117)"
       cx="350"
       cy="716.1817626953125"
       fx="350"
       fy="716.1817626953125"
       r="300" />
  </defs>
  <metadata
     id="metadata7">
    <rdf:RDF>
      <cc:Work
         rdf:about="">
        <dc:format>image/svg+xml</dc:format>
        <dc:type
           rdf:resource="http://purl.org/dc/dcmitype/StillImage" />
        <dc:title></dc:title>
      </cc:Work>
    </rdf:RDF>
  </metadata>
  <g
     transform="translate(0,-352.36203582285)"
     id="layer1"
     inkscape:groupmode="layer"
     inkscape:label="1. réteg">
    <g
       id="g9320">
      <path
         inkscape:connector-curvature="0"
         id="rect5005"
         d="m 0,352.3620358228496 700,0 0,700.0000000000004 -700,0 z"
         style="color:#000000;fill:url(#radialGradient9304);fill-opacity:1;fill-rule:nonzero;stroke:none;stroke-width:17.9330005646;marker:none;visibility:visible;display:inline;overflow:visible;enable-background:accumulate" />
      <g
         id="g9316">
        <path
           inkscape:connector-curvature="0"
           d="m 645.4423259036615,754.4564891229282 c -3.026887180268,17.1663302354857 -7.5727357426481,34.1316680338034 -13.5345396678903,50.5115896976213 -5.9618039252416,16.3799216638175 -13.3845908256745,32.2981395412647 -22.1001651004409,47.3939570022994 -8.7155742747658,15.0958174610347 -18.7897618893935,29.483248422412 -29.9942881996385,42.8362829059621 -11.2045263102441,13.35303448355 -23.624015546181,25.7725237194868 -36.9770500297309,36.977050029731 -13.35303448355,11.2045263102449 -27.7404654449275,21.2787139248726 -42.8362829059618,29.9942881996384 -15.0958174610346,8.7155742747658 -31.0140353384817,16.1383611751986 -47.3939570022992,22.1001651004408 -16.379921663818,5.9618039252417 -33.3452594621352,10.5076524876232 -50.5115896976217,13.5345396678905 -17.1663302354862,3.0268871802683 -34.6633047505475,4.5576740963372 -52.094453300079,4.5576740963382 -17.4311485495315,0 -34.9281230645928,-1.53078691607 -52.094453300079,-4.557674096338 -17.1663302354863,-3.0268871802674 -34.1316680338037,-7.5727357426482 -50.5115896976213,-13.5345396678897 -16.3799216638179,-5.9618039252417 -32.2981395412647,-13.3845908256752 -47.3939570022994,-22.100165100441 -15.0958174610346,-8.7155742747658 -29.4832484224117,-18.7897618893937 -42.8362829059619,-29.9942881996384 -13.35303448355,-11.2045263102442 -25.7725237194872,-23.6240155461811 -36.9770500297314,-36.9770500297312 C 108.982140754062,881.8452842452611 98.90795313943405,867.4578532838844 90.19237886466825,852.3620358228497 81.47680458990248,837.266218361815 74.05401768946923,821.3480004843684 68.09221376422742,804.9680788205504 62.13040983898563,788.5881571567324 57.58456127660529,771.6228193584153 54.55767409633758,754.456489122929 51.53078691606986,737.2901588874425 50,719.7931843723813 50,702.3620358228497 l 76.39311628999999,-2e-13 c 0,-15.2117822858443 1.3358842779124,-30.4810094528182 3.9773825509153,-45.461690585051 2.6414982730028,-14.9806811322322 6.6085609389454,-29.7859605583401 11.8112968965886,-44.080360121349 5.2027359576432,-14.2943995630094 11.680439819942,-28.1858803247209 19.2863309628639,-41.3596702210995 7.605891142922,-13.1737898963789 16.3974144475973,-25.7293863801782 26.175359622187,-37.3822876701845 9.7779451745896,-11.6529012900064 20.6161619347544,-22.4911180501709 32.2690632247608,-32.2690632247604 11.6529012900064,-9.7779451745896 24.2084977738052,-18.5694684792653 37.3822876701842,-26.1753596221872 13.1737898963788,-7.6058911429217 27.0652706580901,-14.0835950052207 41.3596702210994,-19.2863309628633 14.2943995630094,-5.2027359576435 29.0996789891168,-9.1697986235857 44.0803601213496,-11.8112968965886 14.9806811322326,-2.641498273003 30.2499082992069,-3.9773825509154 45.4616905850507,-3.9773825509154 15.2117822858438,0 30.4810094528179,1.3358842779124 45.4616905850506,3.9773825509154 14.9806811322332,2.6414982730029 29.7859605583403,6.6085609389454 44.0803601213497,11.8112968965886 14.2943995630092,5.202735957643 28.1858803247206,11.680439819942 41.3596702210989,19.2863309628633 13.1737898963789,7.6058911429224 25.7293863801782,16.3974144475976 37.3822876701845,26.1753596221872 11.6529012900063,9.7779451745895 22.4911180501709,20.6161619347546 32.2690632247605,32.269063224761 9.7779451745896,11.6529012900063 18.5694684792649,24.2084977738052 26.1753596221868,37.3822876701839 7.605891142922,13.1737898963793 14.0835950052209,27.0652706580903 19.2863309628641,41.3596702210996 5.2027359576427,14.2943995630088 9.1697986235856,29.0996789891168 11.811296896588,44.0803601213496 2.6414982730032,14.980681132232 3.9773825509159,30.249908299206 3.977382550916,45.4616905850497 1e-13,17.4311485495316 -1.5307869160696,34.9281230645928 -4.5576740963371,52.0944533000793 z M 419.7444789914252,690.0642024212069 c -0.7145512028712,-4.0524212460307 -1.7876805812954,-8.0573946094039 -3.1950717103196,-11.9241699567381 -1.4073911290239,-3.8667753473344 -3.1596735870354,-7.6245572052272 -5.2171417749307,-11.1881966416189 -2.0574681878954,-3.5636394363914 -4.4356615097055,-6.9600514885817 -7.0806916267123,-10.1122756330444 -2.6450301170067,-3.1522241444628 -5.5768741019559,-6.084068129412 -8.7290982464188,-8.729098246419 -3.1522241444627,-2.6450301170066 -6.5486361966529,-5.0232234388169 -10.1122756330444,-7.0806916267121 -3.5636394363918,-2.0574681878952 -7.3214212942847,-3.8097506459069 -11.1881966416187,-5.2171417749308 -3.8667753473345,-1.4073911290241 -7.8717487107075,-2.4805205074479 -11.9241699567387,-3.1950717103196 -4.0524212460305,-0.7145512028712 -8.1828970258516,-1.075921008574 -12.2978334016431,-1.075921008574 -4.1149363757906,0 -8.2454121556123,0.3613698057028 -12.2978334016429,1.075921008574 -4.0524212460307,0.7145512028717 -8.0573946094041,1.7876805812955 -11.9241699567381,3.1950717103196 -3.8667753473343,1.4073911290239 -7.6245572052276,3.1596735870356 -11.1881966416187,5.2171417749308 -3.5636394363917,2.0574681878952 -6.9600514885822,4.4356615097055 -10.1122756330446,7.0806916267121 -3.1522241444627,2.645030117007 -6.084068129412,5.5768741019562 -8.7290982464185,8.7290982464183 -2.6450301170068,3.1522241444627 -5.0232234388166,6.548636196653 -7.0806916267122,10.1122756330443 -2.057468187895,3.5636394363918 -3.8097506459072,7.321421294285 -5.2171417749308,11.1881966416189 -1.4073911290239,3.8667753473343 -2.4805205074481,7.8717487107075 -3.1950717103191,11.9241699567382 -0.7145512028715,4.0524212460308 -1.0759210085745,8.1828970258522 -1.0759210085745,12.2978334016427 l -76.3937133549997,8e-13 c 0,6.3343199853598 0.5562739671591,12.6925605246537 1.6562170893761,18.930647956296 1.0999431222169,6.238087431642 2.7518629206906,12.4031360495746 4.9183279499538,18.3554497975136 2.1664650292635,5.9523137479397 4.8638379118865,11.7368485619193 8.0309979045664,17.2225305849405 3.1671599926799,5.4856820230209 6.8280276493505,10.7139428698415 10.8996500517295,15.5663134955643 4.071622402379,4.8523706257223 8.5847512218377,9.3654994451809 13.43712184756,13.4371218475596 4.8523706257225,4.0716224023788 10.0806314725432,7.7324900590496 15.5663134955642,10.8996500517295 5.4856820230212,3.1671599926799 11.2702168370011,5.8645328753031 17.2225305849404,8.0309979045667 5.9523137479391,2.1664650292631 12.1173623658713,3.8183848277366 18.3554497975138,4.9183279499533 6.2380874316424,1.0999431222175 12.5963279709361,1.6562170893767 18.9306479562958,1.6562170893767 6.3343199853595,-8e-13 12.6925605246534,-0.5562739671592 18.9306479562957,-1.6562170893767 6.2380874316425,-1.0999431222167 12.4031360495746,-2.7518629206903 18.355449797514,-4.918327949954 5.9523137479391,-2.1664650292631 11.7368485619189,-4.8638379118862 17.2225305849401,-8.0309979045661 5.4856820230206,-3.1671599926798 10.7139428698419,-6.8280276493506 15.5663134955639,-10.8996500517295 4.8523706257221,-4.0716224023794 9.3654994451808,-8.5847512218377 13.43712184756,-13.43712184756 4.0716224023792,-4.8523706257223 7.7324900590496,-10.080631472543 10.8996500517296,-15.5663134955639 3.1671599926801,-5.4856820230216 5.8645328753031,-11.2702168370014 8.0309979045663,-17.2225305849404 2.1664650292635,-5.9523137479398 3.818384827737,-12.1173623658716 4.918327949954,-18.3554497975141 1.0999431222169,-6.2380874316425 1.656217089376,-12.5963279709358 1.6562170893761,-18.9306479562956 1e-13,-4.1149363757904 -0.3613698057028,-8.2454121556119 -1.0759210085743,-12.2978334016427 z"
           style="color:#000000;fill:url(#radialGradient9314);fill-opacity:1;fill-rule:nonzero;stroke:none;stroke-width:17.9330005646;marker:none;visibility:visible;display:inline;overflow:visible;enable-background:accumulate"
           id="path3061" />
        <path
           id="path9029"
           style="color:#000000;fill:url(#radialGradient9311);fill-opacity:1;fill-rule:nonzero;stroke:none;stroke-width:17.9330005646;marker:none;visibility:visible;display:inline;overflow:visible;enable-background:accumulate"
           d="m 647.1832024475419,670.1658924719888 c -1.8707191915688,-10.6093757407584 -4.6802081619718,-21.0945313216037 -8.3648056891046,-31.2178798271799 -3.6845975271331,-10.1233485055767 -8.2721322063551,-19.9613483732455 -13.6586534376859,-29.2910768219591 -5.38652123133,-9.3297284487129 -11.6127116995491,-18.2216499554962 -18.5374899131748,-26.4742792695025 -6.9247782136256,-8.2526293140065 -14.6004448240684,-15.9282959244498 -22.8530741380755,-22.8530741380757 -8.2526293140063,-6.9247782136255 -17.1445508207896,-13.1509686818446 -26.4742792695026,-18.5374899131752 -9.3297284487136,-5.3865212313301 -19.1677283163832,-9.9740559105528 -29.2910768219588,-13.6586534376854 -10.1233485055769,-3.6845975271334 -20.6085040864214,-6.4940864975348 -31.2178798271809,-8.3648056891051 -10.6093757407578,-1.870719191569 -21.4231008881982,-2.8167975524553 -32.1961433508612,-2.8167975524553 -10.7730424626606,0 -21.5867676101025,0.9460783608863 -32.1961433508606,2.8167975524553 -10.6093757407582,1.8707191915703 -21.0945313216041,4.6802081619717 -31.2178798271799,8.3648056891051 -10.123348505576,3.6845975271326 -19.9613483732465,8.2721322063553 -29.2910768219581,13.6586534376854 -9.3297284487135,5.3865212313306 -18.2216499554979,11.6127116995498 -26.4742792695034,18.5374899131752 -8.2526293140065,6.9247782136259 -15.9282959244499,14.6004448240692 -22.8530741380748,22.853074138074 -6.9247782136255,8.2526293140062 -13.1509686818442,17.1445508207896 -18.5374899131752,26.4742792695026 -5.3865212313295,9.3297284487134 -9.9740559105532,19.1677283163831 -13.6586534376854,29.2910768219589 -3.6845975271328,10.123348505576 -6.4940864975352,20.6085040864218 -8.3648056891038,31.2178798271799 -1.8707191915701,10.6093757407583 -2.8167975524566,21.4231008881993 -2.8167975524566,32.1961433508611 0,4.1149363757919 0.3613698057025,8.2454121556134 1.0759210085743,12.2978334016442 0.714551202871,4.0524212460307 1.7876805812952,8.0573946094039 3.1950717103191,11.9241699567381 1.4073911290238,3.8667753473343 3.1596735870352,7.6245572052271 5.2171417749308,11.1881966416183 2.0574681878955,3.5636394363919 4.4356615097053,6.9600514885823 7.0806916267122,10.112275633045 2.6450301170067,3.1522241444626 5.576874101956,6.0840681294118 8.7290982464186,8.7290982464184 3.1522241444626,2.645030117007 6.5486361966529,5.0232234388169 10.1122756330447,7.0806916267121 3.5636394363909,2.0574681878957 7.3214212942845,3.8097506459069 11.1881966416185,5.2171417749312 3.8667753473343,1.4073911290237 7.8717487107073,2.480520507448 11.9241699567382,3.1950717103192 4.0524212460308,0.7145512028716 8.1828970258524,1.0759210085744 12.2978334016434,1.0759210085754 4.1149363757908,0 8.2454121556123,-0.3613698057028 12.2978334016431,-1.0759210085745 4.0524212460305,-0.7145512028712 8.057394609404,-1.7876805812956 11.924169956738,-3.1950717103192 3.8667753473343,-1.4073911290243 7.6245572052273,-3.1596735870355 11.1881966416189,-5.2171417749313 3.5636394363914,-2.0574681878951 6.9600514885819,-4.435661509705 10.1122756330443,-7.080691626712 3.152224144463,-2.6450301170066 6.0840681294122,-5.5768741019558 8.7290982464191,-8.7290982464185 2.6450301170067,-3.1522241444627 5.0232234388166,-6.5486361966531 7.080691626712,-10.1122756330445 2.0574681878954,-3.5636394363916 3.8097506459067,-7.321421294285 5.2171417749308,-11.1881966416188 1.4073911290237,-3.8667753473342 2.480520507448,-7.8717487107074 3.1950717103196,-11.9241699567381 0.7145512028713,-4.0524212460308 1.0759210085744,-8.1828970258523 1.0759210085739,-12.2978334016442 -5e-13,10.7730424626617 -0.9460783608876,21.5867676101035 -2.816797552457,32.1961433508618 -1.8707191915697,10.6093757407582 -4.6802081619728,21.0945313216039 -8.3648056891048,31.2178798271799 -3.6845975271331,10.123348505575 -8.2721322063552,19.9613483732458 -13.6586534376858,29.291076821959 -5.3865212313301,9.3297284487128 -11.6127116995492,18.2216499554968 -18.5374899131744,26.4742792695031 -6.9247782136262,8.2526293140064 -14.6004448240689,15.9282959244491 -22.853074138076,22.8530741380747 -8.2526293140063,6.9247782136258 -17.1445508207898,13.1509686818448 -26.4742792695024,18.5374899131749 -9.3297284487136,5.3865212313309 -19.1677283163831,9.9740559105528 -29.2910768219593,13.6586534376866 -10.1233485055758,3.6845975271322 -20.6085040864218,6.4940864975351 -31.2178798271796,8.3648056891039 -10.6093757407582,1.8707191915704 -21.4231008881997,2.8167975524567 -32.1961433508612,2.8167975524567 -10.7730424626612,-2.6e-12 -21.586767610103,-0.9460783608889 -32.1961433508615,-2.8167975524592 -10.6093757407587,-1.8707191915688 -21.0945313216037,-4.6802081619718 -31.2178798271799,-8.3648056891044 -10.1233485055756,-3.6845975271333 -19.9613483732463,-8.2721322063552 -29.2910768219582,-13.6586534376861 -9.3297284487135,-5.38652123133 -18.2216499554973,-11.6127116995491 -26.4742792695034,-18.5374899131749 C 107.9781914164892,837.4697110168 100.3025248060459,829.7940444063566 93.37774659242097,821.5414150923503 86.4529683787951,813.288785778344 80.22677791057668,804.3968642715605 74.84025667924578,795.0671358228463 69.45373544791448,785.7374073741341 64.86620076869269,775.8994075064648 61.18160324156031,765.7760590008886 57.4970057144277,755.6527104953127 54.68751674402513,745.1675549144672 52.81679755245659,734.558179173709 50.94607836088579,723.9488034329499 50,713.135078285509 50,702.3620358228481 c 0,-17.43114854953 1.5307869160699,-34.9281230645912 4.55767409633763,-52.0944533000777 3.02688718026774,-17.1663302354858 7.57273574264804,-34.1316680338034 13.53453966788987,-50.5115896976209 5.96180392524181,-16.3799216638179 13.38459082567508,-32.2981395412651 22.10016510044087,-47.3939570022992 8.71557427476581,-15.0958174610347 18.78976188939373,-29.4832484224119 29.99428819963823,-42.836282905962 11.2045263102444,-13.3530344835501 23.6240155461814,-25.772523719487 36.9770500297315,-36.9770500297314 13.3530344835501,-11.2045263102443 27.740465444927,-21.2787139248723 42.8362829059617,-29.9942881996382 15.0958174610345,-8.7155742747656 31.0140353384814,-16.1383611751992 47.3939570022992,-22.1001651004407 16.379921663818,-5.961803925242 33.3452594621354,-10.5076524876221 50.5115896976216,-13.5345396678898 17.166330235486,-3.0268871802676 34.6633047505473,-4.5576740963376 52.0944533000789,-4.5576740963376 17.4311485495315,0 34.9281230645926,1.53078691607 52.0944533000787,4.5576740963376 17.1663302354867,3.0268871802677 34.1316680338039,7.572735742648 50.5115896976218,13.5345396678898 16.3799216638178,5.9618039252414 32.2981395412646,13.3845908256749 47.3939570022992,22.1001651004407 15.0958174610347,8.715574274766 29.483248422411,18.7897618893941 42.8362829059618,29.9942881996385 13.3530344835499,11.2045263102443 25.7725237194873,23.6240155461817 36.9770500297316,36.9770500297317 11.2045263102443,13.3530344835495 21.278713924872,27.7404654449268 29.9942881996378,42.8362829059615 8.7155742747658,15.0958174610347 16.1383611751993,31.0140353384812 22.1001651004409,47.3939570022992 5.9618039252415,16.3799216638174 10.5076524876222,33.3452594621351 13.5345396678896,50.5115896976214 3.0268871802681,17.1663302354851 4.5576740963379,34.6633047505463 4.5576740963378,52.0944533000779 0,-10.7730424626602 -0.9460783608871,-21.5867676101019 -2.8167975524567,-32.1961433508601 z"
           inkscape:connector-curvature="0"
           sodipodi:nodetypes="ssssssssssssssssssssssssssssssssssscssssssssssssssssssssssssssssssssssscs" />
      </g>
    </g>
  </g>
</svg>
