<?xml version="1.0" encoding="utf-8"?>
<svg version="1.1" id="Layer_1" xmlns="http://www.w3.org/2000/svg" xmlns:xlink="http://www.w3.org/1999/xlink" x="0px" y="0px"
	 viewBox="0 0 1662 1662.453" enable-background="new 0 0 1662 1662.453" xml:space="preserve">
<g>
	<g>
		<g>
			
				<linearGradient id="SVGID_1_" gradientUnits="userSpaceOnUse" x1="420.47" y1="1128.2628" x2="1302.3063" y2="1128.2628" gradientTransform="matrix(1 0 0 -1 0 1664.4528)">
				<stop  offset="0.3202" style="stop-color:#CDE1FF"/>
				<stop  offset="0.4354" style="stop-color:#C9DDFB"/>
				<stop  offset="0.5534" style="stop-color:#BDD1F1"/>
				<stop  offset="0.6726" style="stop-color:#A8BDDF"/>
				<stop  offset="0.7928" style="stop-color:#8BA2C7"/>
				<stop  offset="0.9125" style="stop-color:#677FA7"/>
				<stop  offset="1" style="stop-color:#47608C"/>
			</linearGradient>
			<path fill="url(#SVGID_1_)" d="M1572.198,529.934L1572.198,529.934L1572.198,529.934
				C1452.437,236.787,1166.44,31.226,830.393,31.226c-169.811,0-325.322,51.837-455.808,141.211
				c44.687-14.3,94.737-21.45,144.786-21.45c312.809,0,479.045,189.473,479.045,462.958c0,19.662-1.787,37.537-3.575,55.412l0,0
				c-3.575,23.237-5.362,48.262-5.362,73.287c0,155.511,142.999,298.509,314.597,298.509
				C1513.211,1041.154,1674.085,756.944,1572.198,529.934z"/>
			
				<linearGradient id="SVGID_2_" gradientUnits="userSpaceOnUse" x1="1308.2587" y1="1095.1943" x2="408.5565" y2="1095.1943" gradientTransform="matrix(1 0 0 -1 0 1664.4528)">
				<stop  offset="0" style="stop-color:#47608C"/>
				<stop  offset="1" style="stop-color:#07284D"/>
			</linearGradient>
			<path fill="url(#SVGID_2_)" d="M1359.488,882.068l-160.873-514.795L676.67,95.576L508.647,127.75l-132.274,46.475
				c44.687-14.3,94.737-21.45,144.786-21.45c312.809,0,479.045,189.473,479.045,462.958c0,19.662-1.787,37.537-3.575,55.412l0,0
				c-3.575,23.237-5.362,48.262-5.362,73.287c0,155.511,142.999,298.51,314.597,298.51v-10.725L1359.488,882.068z"/>
		</g>
		<g>
			
				<linearGradient id="SVGID_3_" gradientUnits="userSpaceOnUse" x1="508.9879" y1="1120.219" x2="1593.1385" y2="1120.219" gradientTransform="matrix(1 0 0 -1 0 1664.4528)">
				<stop  offset="0" style="stop-color:#93ABD2"/>
				<stop  offset="1" style="stop-color:#39699D"/>
			</linearGradient>
			<path fill="url(#SVGID_3_)" d="M560.484,118.813c291.359,14.3,464.745,194.836,464.745,487.983l-3.575,58.987
				c-3.575,23.237-5.362,46.475-5.362,69.712c0,150.148,137.636,285.997,287.785,285.997c73.287,0,157.298-51.837,212.71-134.061
				c73.287-105.461,85.799-230.585,35.75-343.197C1432.775,249.299,1155.715,66.976,832.181,66.976
				C737.444,66.976,648.07,84.851,560.484,118.813z"/>
		</g>
	</g>
	<g>
		<g>
			
				<linearGradient id="SVGID_4_" gradientUnits="userSpaceOnUse" x1="-1846.3232" y1="1297.813" x2="-964.4996" y2="1297.813" gradientTransform="matrix(-0.5 -0.866 -0.866 0.5 982.1527 -912.5857)">
				<stop  offset="0.3202" style="stop-color:#CDE1FF"/>
				<stop  offset="0.4354" style="stop-color:#C9DDFB"/>
				<stop  offset="0.5534" style="stop-color:#BDD1F1"/>
				<stop  offset="0.6726" style="stop-color:#A8BDDF"/>
				<stop  offset="0.7928" style="stop-color:#8BA2C7"/>
				<stop  offset="0.9125" style="stop-color:#677FA7"/>
				<stop  offset="1" style="stop-color:#47608C"/>
			</linearGradient>
			<path fill="url(#SVGID_4_)" d="M199.412,340.461L199.412,340.461L199.412,340.461C6.364,590.708-29.385,941.055,138.638,1230.627
				c84.012,146.573,209.135,255.61,350.346,323.534c-33.962-32.175-66.137-71.499-91.162-114.399
				c-157.298-271.697-75.074-509.432,160.873-645.281c16.087-8.937,33.962-17.875,50.049-25.025l0,0
				c21.45-8.937,44.687-19.662,66.137-32.175c134.061-76.862,187.686-271.697,100.099-421.846
				C673.095,136.688,345.986,138.475,199.412,340.461z"/>
			
				<linearGradient id="SVGID_5_" gradientUnits="userSpaceOnUse" x1="-958.5171" y1="1265.2329" x2="-1858.2118" y2="1265.2329" gradientTransform="matrix(-0.5 -0.866 -0.866 0.5 982.1527 -912.5857)">
				<stop  offset="0" style="stop-color:#47608C"/>
				<stop  offset="1" style="stop-color:#07284D"/>
			</linearGradient>
			<path fill="url(#SVGID_5_)" d="M612.32,349.398L247.674,746.219l25.025,586.294l110.824,130.486l105.461,91.162
				c-33.962-32.175-66.137-71.499-91.162-114.399c-157.298-271.697-75.074-509.432,160.873-645.281
				c16.087-8.937,33.962-17.875,50.049-25.025l0,0c21.45-8.937,44.687-19.662,66.137-32.175
				c134.061-76.862,187.686-271.697,100.099-421.846l-8.937,5.362L612.32,349.398z"/>
		</g>
		<g>
			
				<linearGradient id="SVGID_6_" gradientUnits="userSpaceOnUse" x1="-1757.8217" y1="1290.28" x2="-673.6727" y2="1290.28" gradientTransform="matrix(-0.5 -0.866 -0.866 0.5 982.1527 -912.5857)">
				<stop  offset="0" style="stop-color:#93ABD2"/>
				<stop  offset="1" style="stop-color:#39699D"/>
			</linearGradient>
			<path fill="url(#SVGID_6_)" d="M349.561,1423.675c-132.274-260.972-64.349-500.495,189.473-647.068l53.624-26.812
				c21.45-8.937,42.9-19.662,62.562-30.387c128.699-75.074,178.748-262.76,103.674-393.246
				c-37.537-64.349-123.336-109.036-221.648-116.186c-128.699-8.937-243.098,41.112-314.597,141.211
				C27.814,603.221,8.152,933.905,169.025,1214.539C215.5,1294.976,276.274,1364.688,349.561,1423.675z"/>
		</g>
	</g>
	<g>
		<g>
			
				<linearGradient id="SVGID_7_" gradientUnits="userSpaceOnUse" x1="-566.2876" y1="3175.6033" x2="315.5361" y2="3175.6033" gradientTransform="matrix(-0.5 0.866 0.866 0.5 -1740.6519 -474.6876)">
				<stop  offset="0.3202" style="stop-color:#CDE1FF"/>
				<stop  offset="0.4354" style="stop-color:#C9DDFB"/>
				<stop  offset="0.5534" style="stop-color:#BDD1F1"/>
				<stop  offset="0.6726" style="stop-color:#A8BDDF"/>
				<stop  offset="0.7928" style="stop-color:#8BA2C7"/>
				<stop  offset="0.9125" style="stop-color:#677FA7"/>
				<stop  offset="1" style="stop-color:#47608C"/>
			</linearGradient>
			<path fill="url(#SVGID_7_)" d="M721.357,1623.873C723.144,1623.873,723.144,1623.873,721.357,1623.873L721.357,1623.873
				c312.809,42.9,634.556-103.674,802.579-393.246c84.012-146.573,117.974-309.234,103.674-464.745
				c-10.725,46.474-28.6,91.161-53.625,135.849c-155.511,271.697-402.183,319.959-638.131,182.323
				c-16.087-8.937-32.175-19.662-46.474-30.387l0,0c-19.662-14.3-39.325-28.6-60.774-41.112
				c-134.061-76.862-328.897-25.025-414.696,123.336C308.449,1316.426,474.684,1598.848,721.357,1623.873z"/>
			
				<linearGradient id="SVGID_8_" gradientUnits="userSpaceOnUse" x1="321.5011" y1="3143.7791" x2="-578.1851" y2="3143.7791" gradientTransform="matrix(-0.5 0.866 0.866 0.5 -1740.6519 -474.6876)">
				<stop  offset="0" style="stop-color:#47608C"/>
				<stop  offset="1" style="stop-color:#07284D"/>
			</linearGradient>
			<path fill="url(#SVGID_8_)" d="M522.946,1262.801l525.52,117.974l496.92-314.597l57.199-160.873l26.812-137.636
				c-10.725,46.475-28.6,91.162-53.625,135.849c-157.298,269.91-403.971,318.172-639.919,180.536
				c-16.087-8.937-32.175-19.662-46.474-30.387l0,0c-19.662-14.3-39.325-28.6-60.774-41.112
				c-134.061-76.862-328.897-25.025-414.696,123.336l8.937,5.362L522.946,1262.801z"/>
		</g>
		<g>
			
				<linearGradient id="SVGID_9_" gradientUnits="userSpaceOnUse" x1="-477.786" y1="3169.292" x2="606.381" y2="3169.292" gradientTransform="matrix(-0.5 0.866 0.866 0.5 -1740.6519 -474.6876)">
				<stop  offset="0" style="stop-color:#93ABD2"/>
				<stop  offset="1" style="stop-color:#39699D"/>
			</linearGradient>
			<path fill="url(#SVGID_9_)" d="M1584.711,953.567c-159.086,244.885-400.396,305.659-654.218,159.086l-50.049-32.175
				c-19.662-14.3-37.537-26.812-57.199-39.325c-128.699-75.074-316.384-23.237-391.459,107.249
				c-37.537,64.349-32.175,160.873,8.937,250.248c55.412,116.186,157.298,189.473,278.847,201.985
				c314.597,42.9,611.319-105.461,773.98-386.096C1540.024,1132.315,1570.411,1044.729,1584.711,953.567z"/>
		</g>
	</g>
</g>
</svg>
