<?xml version="1.0" encoding="utf-8"?>
<!-- Generator: Adobe Illustrator 16.0.0, SVG Export Plug-In . SVG Version: 6.00 Build 0)  -->
<!DOCTYPE svg PUBLIC "-//W3C//DTD SVG 1.1//EN" "http://www.w3.org/Graphics/SVG/1.1/DTD/svg11.dtd" [
	<!ENTITY ns_extend "http://ns.adobe.com/Extensibility/1.0/">
	<!ENTITY ns_ai "http://ns.adobe.com/AdobeIllustrator/10.0/">
	<!ENTITY ns_graphs "http://ns.adobe.com/Graphs/1.0/">
	<!ENTITY ns_vars "http://ns.adobe.com/Variables/1.0/">
	<!ENTITY ns_imrep "http://ns.adobe.com/ImageReplacement/1.0/">
	<!ENTITY ns_sfw "http://ns.adobe.com/SaveForWeb/1.0/">
	<!ENTITY ns_custom "http://ns.adobe.com/GenericCustomNamespace/1.0/">
	<!ENTITY ns_adobe_xpath "http://ns.adobe.com/XPath/1.0/">
]>
<svg version="1.1" id="Layer_1" xmlns:x="&ns_extend;" xmlns:i="&ns_ai;" xmlns:graph="&ns_graphs;"
	 xmlns="http://www.w3.org/2000/svg" xmlns:xlink="http://www.w3.org/1999/xlink" x="0px" y="0px" width="612px" height="792px"
	 viewBox="0 0 612 792" enable-background="new 0 0 612 792" xml:space="preserve">
<metadata>
	<sfw  xmlns="&ns_sfw;">
		<slices></slices>
		<sliceSourceBounds  width="534.547" height="553.032" bottomLeftOrigin="true" y="-709.453" x="42.077"></sliceSourceBounds>
	</sfw>
</metadata>
<g>
	<g>
		<g enable-background="new    ">
			<g>
				
					<linearGradient id="SVGID_1_" gradientUnits="userSpaceOnUse" x1="486.8994" y1="648.8926" x2="541.7051" y2="648.8926" gradientTransform="matrix(1 0 0 1 0 -179)">
					<stop  offset="0" style="stop-color:#000000"/>
					<stop  offset="1" style="stop-color:#FFFFFF"/>
				</linearGradient>
				<path id="SVGID_4_" fill="url(#SVGID_1_)" d="M540.157,487.314l-53.258-28.975c0.548-1.943,1.057-3.899,1.549-5.868
					l53.257,28.972C541.217,483.409,540.704,485.368,540.157,487.314z"/>
			</g>
			<g>
				<g>
					<defs>
						<path id="SVGID_2_" d="M540.157,487.314l-53.258-28.975c0.548-1.943,1.057-3.899,1.549-5.868l53.257,28.972
							C541.217,483.409,540.704,485.368,540.157,487.314z"/>
					</defs>
					<clipPath id="SVGID_3_">
						<use xlink:href="#SVGID_2_"  overflow="visible"/>
					</clipPath>
					
						<linearGradient id="SVGID_5_" gradientUnits="userSpaceOnUse" x1="486.8994" y1="648.8926" x2="541.7051" y2="648.8926" gradientTransform="matrix(1 0 0 1 0 -179)">
						<stop  offset="0" style="stop-color:#000000"/>
						<stop  offset="1" style="stop-color:#FFFFFF"/>
					</linearGradient>
					<path clip-path="url(#SVGID_3_)" fill="url(#SVGID_5_)" d="M540.157,487.314l-53.258-28.975
						c0.548-1.943,1.057-3.899,1.549-5.868l53.257,28.972C541.217,483.409,540.704,485.368,540.157,487.314"/>
				</g>
			</g>
		</g>
		<g enable-background="new    ">
			<g>
				
					<linearGradient id="SVGID_6_" gradientUnits="userSpaceOnUse" x1="336.7471" y1="825.5469" x2="399.1582" y2="825.5469" gradientTransform="matrix(1 0 0 1 0 -179)">
					<stop  offset="0" style="stop-color:#000000"/>
					<stop  offset="1" style="stop-color:#FFFFFF"/>
				</linearGradient>
				<path id="SVGID_8_" fill="url(#SVGID_6_)" d="M390.004,663.059l-53.257-28.969c3.076-1.297,6.127-2.62,9.152-4.054
					l53.259,28.968C396.133,660.438,393.081,661.763,390.004,663.059z"/>
			</g>
			<g>
				<g>
					<defs>
						<path id="SVGID_7_" d="M390.004,663.059l-53.257-28.969c3.076-1.297,6.127-2.62,9.152-4.054l53.259,28.968
							C396.133,660.438,393.081,661.763,390.004,663.059z"/>
					</defs>
					<clipPath id="SVGID_9_">
						<use xlink:href="#SVGID_7_"  overflow="visible"/>
					</clipPath>
					
						<linearGradient id="SVGID_10_" gradientUnits="userSpaceOnUse" x1="336.7471" y1="825.6055" x2="398.9023" y2="825.6055" gradientTransform="matrix(1 0 0 1 0 -179)">
						<stop  offset="0" style="stop-color:#000000"/>
						<stop  offset="1" style="stop-color:#FFFFFF"/>
					</linearGradient>
					<path clip-path="url(#SVGID_9_)" fill="url(#SVGID_10_)" d="M390.004,663.059l-53.257-28.969
						c2.988-1.261,5.959-2.548,8.899-3.938l53.256,28.969C395.962,660.51,392.998,661.802,390.004,663.059"/>
				</g>
			</g>
			<g>
				<g>
					<defs>
						<path id="SVGID_11_" d="M390.004,663.059l-53.257-28.969c3.076-1.297,6.127-2.62,9.152-4.054l53.259,28.968
							C396.133,660.438,393.081,661.763,390.004,663.059z"/>
					</defs>
					<clipPath id="SVGID_12_">
						<use xlink:href="#SVGID_11_"  overflow="visible"/>
					</clipPath>
					
						<linearGradient id="SVGID_14_" gradientUnits="userSpaceOnUse" x1="345.6465" y1="823.5781" x2="399.1582" y2="823.5781" gradientTransform="matrix(1 0 0 1 0 -179)">
						<stop  offset="0" style="stop-color:#000000"/>
						<stop  offset="1" style="stop-color:#FFFFFF"/>
					</linearGradient>
					<path clip-path="url(#SVGID_12_)" fill="url(#SVGID_14_)" d="M398.902,659.121l-53.256-28.969
						c0.082-0.039,0.168-0.078,0.253-0.116l53.259,28.968C399.073,659.044,398.988,659.083,398.902,659.121"/>
				</g>
			</g>
		</g>
		<g enable-background="new    ">
			<g>
				
					<linearGradient id="SVGID_15_" gradientUnits="userSpaceOnUse" x1="487.1543" y1="516.9023" x2="570.8496" y2="516.9023" gradientTransform="matrix(1 0 0 1 0 -179)">
					<stop  offset="0" style="stop-color:#000000"/>
					<stop  offset="1" style="stop-color:#FFFFFF"/>
				</linearGradient>
				<path id="SVGID_13_" fill="url(#SVGID_15_)" d="M540.41,350.116l-53.256-28.976c10.13,1.32,20.286,2.839,30.439,4.551
					l53.256,28.973C560.699,352.949,550.546,351.43,540.41,350.116z"/>
			</g>
			<g>
				<g>
					<defs>
						<path id="SVGID_16_" d="M540.41,350.116l-53.256-28.976c10.13,1.32,20.286,2.839,30.439,4.551l53.256,28.973
							C560.699,352.949,550.546,351.43,540.41,350.116z"/>
					</defs>
					<clipPath id="SVGID_18_">
						<use xlink:href="#SVGID_16_"  overflow="visible"/>
					</clipPath>
					
						<linearGradient id="SVGID_19_" gradientUnits="userSpaceOnUse" x1="487.1543" y1="516.9023" x2="570.8496" y2="516.9023" gradientTransform="matrix(1 0 0 1 0 -179)">
						<stop  offset="0" style="stop-color:#000000"/>
						<stop  offset="1" style="stop-color:#FFFFFF"/>
					</linearGradient>
					<path clip-path="url(#SVGID_18_)" fill="url(#SVGID_19_)" d="M540.41,350.116l-53.256-28.976
						c10.13,1.32,20.286,2.839,30.439,4.551l53.256,28.973C560.699,352.949,550.546,351.43,540.41,350.116"/>
				</g>
			</g>
		</g>
		<g enable-background="new    ">
			<g>
				
					<linearGradient id="SVGID_20_" gradientUnits="userSpaceOnUse" x1="218.7559" y1="842.1436" x2="281.1787" y2="842.1436" gradientTransform="matrix(1 0 0 1 0 -179)">
					<stop  offset="0" style="stop-color:#000000"/>
					<stop  offset="1" style="stop-color:#FFFFFF"/>
				</linearGradient>
				<path id="SVGID_17_" fill="url(#SVGID_20_)" d="M272.012,676.875l-53.256-28.974c3.017,0.587,6.065,1.083,9.165,1.513
					l53.258,28.972C278.082,677.955,275.034,677.46,272.012,676.875z"/>
			</g>
			<g>
				<g>
					<defs>
						<path id="SVGID_22_" d="M272.012,676.875l-53.256-28.974c3.017,0.587,6.065,1.083,9.165,1.513l53.258,28.972
							C278.082,677.955,275.034,677.46,272.012,676.875z"/>
					</defs>
					<clipPath id="SVGID_23_">
						<use xlink:href="#SVGID_22_"  overflow="visible"/>
					</clipPath>
					
						<linearGradient id="SVGID_24_" gradientUnits="userSpaceOnUse" x1="218.7559" y1="842.1436" x2="281.1787" y2="842.1436" gradientTransform="matrix(1 0 0 1 0 -179)">
						<stop  offset="0" style="stop-color:#000000"/>
						<stop  offset="1" style="stop-color:#FFFFFF"/>
					</linearGradient>
					<path clip-path="url(#SVGID_23_)" fill="url(#SVGID_24_)" d="M272.012,676.875l-53.256-28.974
						c3.017,0.587,6.065,1.083,9.165,1.513l53.258,28.972C278.082,677.955,275.034,677.46,272.012,676.875"/>
				</g>
			</g>
		</g>
		<g enable-background="new    ">
			<g>
				
					<linearGradient id="SVGID_25_" gradientUnits="userSpaceOnUse" x1="218.7593" y1="857.2324" x2="280.1616" y2="857.2324" gradientTransform="matrix(1 0 0 1 0 -179)">
					<stop  offset="0" style="stop-color:#000000"/>
					<stop  offset="1" style="stop-color:#FFFFFF"/>
				</linearGradient>
				<path id="SVGID_21_" fill="url(#SVGID_25_)" d="M280.162,708.564l-53.257-28.971c-2.922-10.557-5.632-21.112-8.146-31.692
					l53.256,28.974C274.534,687.455,277.241,698.01,280.162,708.564z"/>
			</g>
			<g>
				<g>
					<defs>
						<path id="SVGID_27_" d="M280.162,708.564l-53.257-28.971c-2.922-10.557-5.632-21.112-8.146-31.692l53.256,28.974
							C274.534,687.455,277.241,698.01,280.162,708.564z"/>
					</defs>
					<clipPath id="SVGID_28_">
						<use xlink:href="#SVGID_27_"  overflow="visible"/>
					</clipPath>
					
						<linearGradient id="SVGID_29_" gradientUnits="userSpaceOnUse" x1="218.7593" y1="857.2324" x2="280.1616" y2="857.2324" gradientTransform="matrix(1 0 0 1 0 -179)">
						<stop  offset="0" style="stop-color:#000000"/>
						<stop  offset="1" style="stop-color:#FFFFFF"/>
					</linearGradient>
					<path clip-path="url(#SVGID_28_)" fill="url(#SVGID_29_)" d="M280.162,708.564l-53.257-28.971
						c-2.922-10.557-5.632-21.112-8.146-31.692l53.256,28.974C274.534,687.455,277.241,698.01,280.162,708.564"/>
				</g>
			</g>
		</g>
		
			<linearGradient id="SVGID_31_" gradientUnits="userSpaceOnUse" x1="304.2373" y1="609.1758" x2="430.0536" y2="677.0178" gradientTransform="matrix(1 0 0 1 0 -179)">
			<stop  offset="0" style="stop-color:#000000"/>
			<stop  offset="1" style="stop-color:#FFFFFF"/>
		</linearGradient>
		<path fill="url(#SVGID_31_)" d="M366.091,391.978l-53.259-28.973c15.688,8.541,26.079,25.997,26.043,47.56
			c-0.003,2.073-0.106,4.137-0.3,6.188c-0.075,0.82-0.23,1.619-0.335,2.435c-0.164,1.22-0.294,2.441-0.516,3.654
			c-0.162,0.874-0.396,1.734-0.592,2.598c-0.256,1.124-0.48,2.259-0.784,3.363c-0.23,0.835-0.527,1.647-0.789,2.471
			c-0.353,1.122-0.685,2.254-1.088,3.353c-0.137,0.367-0.307,0.727-0.446,1.088c-0.551,1.409-1.128,2.803-1.759,4.173
			c-0.279,0.609-0.588,1.19-0.886,1.783c-0.569,1.157-1.156,2.301-1.785,3.416c-0.263,0.462-0.528,0.923-0.796,1.382
			c-0.779,1.323-1.601,2.621-2.462,3.89c-0.16,0.23-0.304,0.472-0.458,0.7c-0.219,0.312-0.468,0.6-0.687,0.906
			c-1.231,1.712-2.534,3.36-3.903,4.955c-0.48,0.555-0.973,1.092-1.465,1.633c-1.271,1.396-2.592,2.729-3.966,4.01
			c-0.497,0.466-0.973,0.959-1.484,1.407c-0.349,0.304-0.707,0.597-1.056,0.892c-1.041,0.886-2.109,1.733-3.197,2.542
			c-0.403,0.307-0.801,0.609-1.211,0.905c-0.999,0.705-2.023,1.36-3.055,2.015c-0.581,0.365-1.147,0.753-1.74,1.095
			c-1.211,0.718-2.455,1.363-3.708,1.992c-0.41,0.205-0.804,0.44-1.216,0.637c-1.571,0.736-3.175,1.401-4.8,2.004
			c-0.443,0.163-0.897,0.308-1.341,0.46c-1.249,0.43-2.513,0.815-3.788,1.16c-0.499,0.13-0.995,0.267-1.492,0.392
			c-1.7,0.403-3.413,0.759-5.15,1.004c-1.568,0.215-3.109,0.346-4.642,0.43c-0.487,0.023-0.971,0.02-1.458,0.032
			c-1.049,0.026-2.093,0.026-3.129-0.013c-0.532-0.025-1.064-0.051-1.595-0.091c-1.01-0.071-2.004-0.176-2.992-0.307
			c-0.479-0.065-0.959-0.117-1.433-0.196c-1.219-0.204-2.421-0.449-3.606-0.735c-0.207-0.056-0.423-0.093-0.63-0.144
			c-1.402-0.365-2.771-0.802-4.119-1.289c-0.414-0.148-0.814-0.322-1.222-0.485c-0.941-0.367-1.87-0.766-2.781-1.189
			c-0.801-0.374-1.603-0.753-2.383-1.177l53.258,28.973c0.564,0.308,1.135,0.603,1.711,0.887c0.218,0.107,0.454,0.188,0.674,0.294
			c0.909,0.424,1.837,0.814,2.775,1.187c0.41,0.159,0.811,0.339,1.229,0.488c1.343,0.482,2.709,0.92,4.106,1.284
			c0.033,0.007,0.062,0.021,0.091,0.026c0.189,0.052,0.386,0.071,0.577,0.117c1.176,0.286,2.367,0.535,3.576,0.737
			c0.472,0.071,0.952,0.13,1.431,0.195c0.994,0.13,1.998,0.238,3.009,0.307c0.522,0.039,1.039,0.071,1.571,0.088
			c1.043,0.042,2.103,0.042,3.165,0.017c0.473-0.014,0.943-0.011,1.418-0.036c1.536-0.075,3.084-0.206,4.655-0.431
			c1.741-0.244,3.455-0.604,5.156-1.007c0.492-0.117,0.978-0.251,1.469-0.382c1.284-0.35,2.554-0.733,3.812-1.164
			c0.443-0.155,0.894-0.293,1.33-0.456c1.572-0.587,3.129-1.213,4.648-1.929c0.059-0.026,0.104-0.06,0.163-0.086
			c0.397-0.183,0.772-0.41,1.17-0.606c1.268-0.636,2.526-1.291,3.752-2.011c0.588-0.349,1.154-0.733,1.729-1.095
			c0.769-0.487,1.557-0.943,2.31-1.464c0.259-0.176,0.499-0.375,0.754-0.555c0.41-0.294,0.809-0.593,1.202-0.896
			c1.097-0.812,2.162-1.665,3.208-2.552c0.349-0.293,0.707-0.58,1.054-0.887c0.185-0.163,0.384-0.316,0.573-0.485
			c0.322-0.291,0.595-0.63,0.912-0.923c1.37-1.281,2.696-2.613,3.967-4.009c0.271-0.294,0.576-0.548,0.846-0.855
			c0.215-0.247,0.4-0.528,0.619-0.782c1.361-1.59,2.673-3.24,3.898-4.948c0.172-0.234,0.368-0.442,0.534-0.678
			c0.056-0.072,0.102-0.156,0.156-0.234c0.157-0.219,0.294-0.456,0.45-0.685c0.867-1.271,1.691-2.582,2.478-3.917
			c0.267-0.451,0.528-0.904,0.785-1.358c0.231-0.409,0.485-0.808,0.707-1.221c0.386-0.721,0.718-1.465,1.082-2.197
			c0.294-0.597,0.607-1.184,0.888-1.79c0.629-1.369,1.209-2.765,1.757-4.179c0.143-0.358,0.31-0.715,0.446-1.083
			c0.027-0.064,0.052-0.13,0.079-0.198c0.378-1.04,0.677-2.103,1.011-3.152c0.26-0.828,0.56-1.637,0.788-2.471
			c0.306-1.108,0.527-2.236,0.783-3.364c0.194-0.867,0.43-1.725,0.594-2.602c0.219-1.203,0.352-2.432,0.513-3.65
			c0.102-0.814,0.258-1.613,0.337-2.435c0.192-2.048,0.297-4.11,0.301-6.184C392.172,417.978,381.783,400.511,366.091,391.978z"/>
		<g enable-background="new    ">
			<g>
				
					<linearGradient id="SVGID_32_" gradientUnits="userSpaceOnUse" x1="382.5684" y1="383.1084" x2="463.2373" y2="383.1084" gradientTransform="matrix(1 0 0 1 0 -179)">
					<stop  offset="0" style="stop-color:#000000"/>
					<stop  offset="1" style="stop-color:#FFFFFF"/>
				</linearGradient>
				<path id="SVGID_26_" fill="url(#SVGID_32_)" d="M435.826,229.034l-53.258-28.976c8.995-7.061,18.121-14.03,27.41-20.875
					l53.259,28.972C453.953,215.004,444.819,221.973,435.826,229.034z"/>
			</g>
			<g>
				<g>
					<defs>
						<path id="SVGID_33_" d="M435.826,229.034l-53.258-28.976c8.995-7.061,18.121-14.03,27.41-20.875l53.259,28.972
							C453.953,215.004,444.819,221.973,435.826,229.034z"/>
					</defs>
					<clipPath id="SVGID_34_">
						<use xlink:href="#SVGID_33_"  overflow="visible"/>
					</clipPath>
					
						<linearGradient id="SVGID_36_" gradientUnits="userSpaceOnUse" x1="382.5684" y1="383.1084" x2="463.2373" y2="383.1084" gradientTransform="matrix(1 0 0 1 0 -179)">
						<stop  offset="0" style="stop-color:#000000"/>
						<stop  offset="1" style="stop-color:#FFFFFF"/>
					</linearGradient>
					<path clip-path="url(#SVGID_34_)" fill="url(#SVGID_36_)" d="M435.826,229.034l-53.258-28.976
						c8.995-7.061,18.121-14.03,27.41-20.875l53.259,28.972C453.953,215.004,444.819,221.973,435.826,229.034"/>
				</g>
			</g>
		</g>
		<g enable-background="new    ">
			<g>
				
					<linearGradient id="SVGID_37_" gradientUnits="userSpaceOnUse" x1="346.7148" y1="388.019" x2="435.8262" y2="388.019" gradientTransform="matrix(1 0 0 1 0 -179)">
					<stop  offset="0" style="stop-color:#000000"/>
					<stop  offset="1" style="stop-color:#FFFFFF"/>
				</linearGradient>
				<path id="SVGID_30_" fill="url(#SVGID_37_)" d="M399.973,217.974l-53.258-28.969c12.479,2.428,24.444,6.197,35.854,11.053
					l53.258,28.976C424.417,224.177,412.458,220.405,399.973,217.974z"/>
			</g>
			<g>
				<g>
					<defs>
						<path id="SVGID_38_" d="M399.973,217.974l-53.258-28.969c12.479,2.428,24.444,6.197,35.854,11.053l53.258,28.976
							C424.417,224.177,412.458,220.405,399.973,217.974z"/>
					</defs>
					<clipPath id="SVGID_40_">
						<use xlink:href="#SVGID_38_"  overflow="visible"/>
					</clipPath>
					
						<linearGradient id="SVGID_41_" gradientUnits="userSpaceOnUse" x1="346.7148" y1="383.6724" x2="410.375" y2="383.6724" gradientTransform="matrix(1 0 0 1 0 -179)">
						<stop  offset="0" style="stop-color:#000000"/>
						<stop  offset="1" style="stop-color:#FFFFFF"/>
					</linearGradient>
					<path clip-path="url(#SVGID_40_)" fill="url(#SVGID_41_)" d="M399.973,217.974l-53.258-28.969
						c3.508,0.681,6.976,1.47,10.4,2.359l53.26,28.976C406.949,219.447,403.479,218.658,399.973,217.974"/>
				</g>
			</g>
			<g>
				<g>
					<defs>
						<path id="SVGID_42_" d="M399.973,217.974l-53.258-28.969c12.479,2.428,24.444,6.197,35.854,11.053l53.258,28.976
							C424.417,224.177,412.458,220.405,399.973,217.974z"/>
					</defs>
					<clipPath id="SVGID_44_">
						<use xlink:href="#SVGID_42_"  overflow="visible"/>
					</clipPath>
					
						<linearGradient id="SVGID_45_" gradientUnits="userSpaceOnUse" x1="357.1152" y1="389.1987" x2="435.8262" y2="389.1987" gradientTransform="matrix(1 0 0 1 0 -179)">
						<stop  offset="0" style="stop-color:#000000"/>
						<stop  offset="1" style="stop-color:#FFFFFF"/>
					</linearGradient>
					<path clip-path="url(#SVGID_44_)" fill="url(#SVGID_45_)" d="M410.375,220.34l-53.26-28.976
						c8.764,2.278,17.253,5.206,25.453,8.694l53.258,28.976C427.625,225.537,419.137,222.608,410.375,220.34"/>
				</g>
			</g>
		</g>
		<g enable-background="new    ">
			<g>
				
					<linearGradient id="SVGID_46_" gradientUnits="userSpaceOnUse" x1="77.3301" y1="814.4248" x2="208.7456" y2="814.4248" gradientTransform="matrix(1 0 0 1 0 -179)">
					<stop  offset="0" style="stop-color:#000000"/>
					<stop  offset="1" style="stop-color:#FFFFFF"/>
				</linearGradient>
				<path id="SVGID_35_" fill="url(#SVGID_46_)" d="M208.746,686.659l-53.258-28.979c-16.153-9.329-30.272-19.462-43.273-31.649
					c-12.968-12.229-24.166-25.918-34.884-41.841l53.257,28.976c10.718,15.925,21.917,29.611,34.884,41.835
					C178.473,667.199,192.593,677.33,208.746,686.659z"/>
			</g>
			<g>
				<g>
					<defs>
						<path id="SVGID_48_" d="M208.746,686.659l-53.258-28.979c-16.153-9.329-30.272-19.462-43.273-31.649
							c-12.968-12.229-24.166-25.918-34.884-41.841l53.257,28.976c10.718,15.925,21.917,29.611,34.884,41.835
							C178.473,667.199,192.593,677.33,208.746,686.659z"/>
					</defs>
					<clipPath id="SVGID_49_">
						<use xlink:href="#SVGID_48_"  overflow="visible"/>
					</clipPath>
					
						<linearGradient id="SVGID_50_" gradientUnits="userSpaceOnUse" x1="77.3301" y1="814.4248" x2="208.7456" y2="814.4248" gradientTransform="matrix(1 0 0 1 0 -179)">
						<stop  offset="0" style="stop-color:#000000"/>
						<stop  offset="1" style="stop-color:#FFFFFF"/>
					</linearGradient>
					<path clip-path="url(#SVGID_49_)" fill="url(#SVGID_50_)" d="M208.746,686.659l-53.258-28.979
						c-16.153-9.329-30.272-19.462-43.273-31.649c-12.968-12.229-24.166-25.918-34.884-41.841l53.257,28.976
						c10.718,15.925,21.917,29.611,34.884,41.835C178.473,667.199,192.593,677.33,208.746,686.659"/>
				</g>
			</g>
		</g>
		<g enable-background="new    ">
			<g>
				
					<linearGradient id="SVGID_52_" gradientUnits="userSpaceOnUse" x1="77.3301" y1="761.7822" x2="146.415" y2="761.7822" gradientTransform="matrix(1 0 0 1 0 -179)">
					<stop  offset="0" style="stop-color:#000000"/>
					<stop  offset="1" style="stop-color:#FFFFFF"/>
				</linearGradient>
				<path id="SVGID_39_" fill="url(#SVGID_52_)" d="M130.587,613.166L77.33,584.19c5.15-10.73,10.437-21.315,15.828-31.792
					l53.257,28.972C141.025,591.852,135.738,602.432,130.587,613.166z"/>
			</g>
			<g>
				<g>
					<defs>
						<path id="SVGID_53_" d="M130.587,613.166L77.33,584.19c5.15-10.73,10.437-21.315,15.828-31.792l53.257,28.972
							C141.025,591.852,135.738,602.432,130.587,613.166z"/>
					</defs>
					<clipPath id="SVGID_54_">
						<use xlink:href="#SVGID_53_"  overflow="visible"/>
					</clipPath>
					
						<linearGradient id="SVGID_56_" gradientUnits="userSpaceOnUse" x1="77.3301" y1="761.7822" x2="146.415" y2="761.7822" gradientTransform="matrix(1 0 0 1 0 -179)">
						<stop  offset="0" style="stop-color:#000000"/>
						<stop  offset="1" style="stop-color:#FFFFFF"/>
					</linearGradient>
					<path clip-path="url(#SVGID_54_)" fill="url(#SVGID_56_)" d="M130.587,613.166L77.33,584.19
						c5.15-10.73,10.437-21.315,15.828-31.792l53.257,28.972C141.025,591.852,135.738,602.432,130.587,613.166"/>
				</g>
			</g>
		</g>
		<g enable-background="new    ">
			<g>
				
					<linearGradient id="SVGID_57_" gradientUnits="userSpaceOnUse" x1="76.1387" y1="723.6396" x2="146.415" y2="723.6396" gradientTransform="matrix(1 0 0 1 0 -179)">
					<stop  offset="0" style="stop-color:#000000"/>
					<stop  offset="1" style="stop-color:#FFFFFF"/>
				</linearGradient>
				<path id="SVGID_43_" fill="url(#SVGID_57_)" d="M146.415,581.37l-53.257-28.972c-7.176-13.746-12.932-28.63-17.019-44.489
					l53.261,28.969C133.483,552.74,139.238,567.624,146.415,581.37z"/>
			</g>
			<g>
				<g>
					<defs>
						<path id="SVGID_58_" d="M146.415,581.37l-53.257-28.972c-7.176-13.746-12.932-28.63-17.019-44.489l53.261,28.969
							C133.483,552.74,139.238,567.624,146.415,581.37z"/>
					</defs>
					<clipPath id="SVGID_60_">
						<use xlink:href="#SVGID_58_"  overflow="visible"/>
					</clipPath>
					
						<linearGradient id="SVGID_61_" gradientUnits="userSpaceOnUse" x1="76.1387" y1="723.6396" x2="146.415" y2="723.6396" gradientTransform="matrix(1 0 0 1 0 -179)">
						<stop  offset="0" style="stop-color:#000000"/>
						<stop  offset="1" style="stop-color:#FFFFFF"/>
					</linearGradient>
					<path clip-path="url(#SVGID_60_)" fill="url(#SVGID_61_)" d="M146.415,581.37l-53.257-28.972
						c-7.176-13.746-12.932-28.63-17.019-44.489l53.261,28.969C133.483,552.74,139.238,567.624,146.415,581.37"/>
				</g>
			</g>
		</g>
		<g enable-background="new    ">
			<g>
				
					<linearGradient id="SVGID_62_" gradientUnits="userSpaceOnUse" x1="70.0269" y1="671.6963" x2="124.4663" y2="671.6963" gradientTransform="matrix(1 0 0 1 0 -179)">
					<stop  offset="0" style="stop-color:#000000"/>
					<stop  offset="1" style="stop-color:#FFFFFF"/>
				</linearGradient>
				<path id="SVGID_47_" fill="url(#SVGID_62_)" d="M124.466,512.293l-53.258-28.972c-0.478-3.367-0.869-6.8-1.182-10.222
					l53.258,28.975C123.597,505.494,123.995,508.93,124.466,512.293z"/>
			</g>
			<g>
				<g>
					<defs>
						<path id="SVGID_63_" d="M124.466,512.293l-53.258-28.972c-0.478-3.367-0.869-6.8-1.182-10.222l53.258,28.975
							C123.597,505.494,123.995,508.93,124.466,512.293z"/>
					</defs>
					<clipPath id="SVGID_65_">
						<use xlink:href="#SVGID_63_"  overflow="visible"/>
					</clipPath>
					
						<linearGradient id="SVGID_66_" gradientUnits="userSpaceOnUse" x1="70.0269" y1="671.6963" x2="124.4663" y2="671.6963" gradientTransform="matrix(1 0 0 1 0 -179)">
						<stop  offset="0" style="stop-color:#000000"/>
						<stop  offset="1" style="stop-color:#FFFFFF"/>
					</linearGradient>
					<path clip-path="url(#SVGID_65_)" fill="url(#SVGID_66_)" d="M124.466,512.293l-53.258-28.972
						c-0.478-3.367-0.869-6.8-1.182-10.222l53.258,28.975C123.597,505.494,123.995,508.93,124.466,512.293"/>
				</g>
			</g>
		</g>
		<g enable-background="new    ">
			<g>
				
					<linearGradient id="SVGID_67_" gradientUnits="userSpaceOnUse" x1="227.8184" y1="358.123" x2="391.8232" y2="358.123" gradientTransform="matrix(1 0 0 1 0 -179)">
					<stop  offset="0" style="stop-color:#000000"/>
					<stop  offset="1" style="stop-color:#FFFFFF"/>
				</linearGradient>
				<path id="SVGID_51_" fill="url(#SVGID_67_)" d="M281.075,201.825l-53.257-28.976c19.043-6.8,37.014-11.546,55.385-14.131
					c18.397-2.582,36.335-2.881,55.363-1.431l53.257,28.969c-19.027-1.45-36.965-1.15-55.363,1.434
					C318.087,190.272,300.118,195.019,281.075,201.825z"/>
			</g>
			<g>
				<g>
					<defs>
						<path id="SVGID_68_" d="M281.075,201.825l-53.257-28.976c19.043-6.8,37.014-11.546,55.385-14.131
							c18.397-2.582,36.335-2.881,55.363-1.431l53.257,28.969c-19.027-1.45-36.965-1.15-55.363,1.434
							C318.087,190.272,300.118,195.019,281.075,201.825z"/>
					</defs>
					<clipPath id="SVGID_70_">
						<use xlink:href="#SVGID_68_"  overflow="visible"/>
					</clipPath>
					
						<linearGradient id="SVGID_71_" gradientUnits="userSpaceOnUse" x1="227.8184" y1="358.123" x2="391.8232" y2="358.123" gradientTransform="matrix(1 0 0 1 0 -179)">
						<stop  offset="0" style="stop-color:#000000"/>
						<stop  offset="1" style="stop-color:#FFFFFF"/>
					</linearGradient>
					<path clip-path="url(#SVGID_70_)" fill="url(#SVGID_71_)" d="M281.075,201.825l-53.257-28.976
						c19.043-6.8,37.014-11.546,55.385-14.131c18.397-2.582,36.335-2.881,55.363-1.431l53.257,28.969
						c-19.027-1.45-36.965-1.15-55.363,1.434C318.087,190.272,300.118,195.019,281.075,201.825"/>
				</g>
			</g>
		</g>
		<g enable-background="new    ">
			<g>
				
					<linearGradient id="SVGID_72_" gradientUnits="userSpaceOnUse" x1="219.5732" y1="383.3467" x2="281.0752" y2="383.3467" gradientTransform="matrix(1 0 0 1 0 -179)">
					<stop  offset="0" style="stop-color:#000000"/>
					<stop  offset="1" style="stop-color:#FFFFFF"/>
				</linearGradient>
				<path id="SVGID_55_" fill="url(#SVGID_72_)" d="M272.833,235.843l-53.26-28.972c2.56-11.298,5.308-22.649,8.245-34.021
					l53.257,28.976C278.137,213.198,275.391,224.545,272.833,235.843z"/>
			</g>
			<g>
				<g>
					<defs>
						<path id="SVGID_73_" d="M272.833,235.843l-53.26-28.972c2.56-11.298,5.308-22.649,8.245-34.021l53.257,28.976
							C278.137,213.198,275.391,224.545,272.833,235.843z"/>
					</defs>
					<clipPath id="SVGID_75_">
						<use xlink:href="#SVGID_73_"  overflow="visible"/>
					</clipPath>
					
						<linearGradient id="SVGID_76_" gradientUnits="userSpaceOnUse" x1="219.5732" y1="383.3467" x2="281.0752" y2="383.3467" gradientTransform="matrix(1 0 0 1 0 -179)">
						<stop  offset="0" style="stop-color:#000000"/>
						<stop  offset="1" style="stop-color:#FFFFFF"/>
					</linearGradient>
					<path clip-path="url(#SVGID_75_)" fill="url(#SVGID_76_)" d="M272.833,235.843l-53.26-28.972
						c2.56-11.298,5.308-22.649,8.245-34.021l53.257,28.976C278.137,213.198,275.391,224.545,272.833,235.843"/>
				</g>
			</g>
		</g>
		<g enable-background="new    ">
			<g>
				
					<linearGradient id="SVGID_77_" gradientUnits="userSpaceOnUse" x1="183.6631" y1="410.9297" x2="272.8359" y2="410.9297" gradientTransform="matrix(1 0 0 1 0 -179)">
					<stop  offset="0" style="stop-color:#000000"/>
					<stop  offset="1" style="stop-color:#FFFFFF"/>
				</linearGradient>
				<path id="SVGID_59_" fill="url(#SVGID_77_)" d="M236.921,256.989l-53.258-28.976c11.403-8.064,23.39-15.203,35.913-21.142
					l53.26,28.972C260.31,241.783,248.323,248.924,236.921,256.989z"/>
			</g>
			<g>
				<g>
					<defs>
						<path id="SVGID_79_" d="M236.921,256.989l-53.258-28.976c11.403-8.064,23.39-15.203,35.913-21.142l53.26,28.972
							C260.31,241.783,248.323,248.924,236.921,256.989z"/>
					</defs>
					<clipPath id="SVGID_80_">
						<use xlink:href="#SVGID_79_"  overflow="visible"/>
					</clipPath>
					
						<linearGradient id="SVGID_81_" gradientUnits="userSpaceOnUse" x1="183.6631" y1="420.7148" x2="239.1665" y2="420.7148" gradientTransform="matrix(1 0 0 1 0 -179)">
						<stop  offset="0" style="stop-color:#000000"/>
						<stop  offset="1" style="stop-color:#FFFFFF"/>
					</linearGradient>
					<path clip-path="url(#SVGID_80_)" fill="url(#SVGID_81_)" d="M236.921,256.989l-53.258-28.976
						c0.749-0.528,1.491-1.046,2.247-1.571l53.256,28.973C238.413,255.942,237.664,256.461,236.921,256.989"/>
				</g>
			</g>
			<g>
				<g>
					<defs>
						<path id="SVGID_83_" d="M236.921,256.989l-53.258-28.976c11.403-8.064,23.39-15.203,35.913-21.142l53.26,28.972
							C260.31,241.783,248.323,248.924,236.921,256.989z"/>
					</defs>
					<clipPath id="SVGID_84_">
						<use xlink:href="#SVGID_83_"  overflow="visible"/>
					</clipPath>
					
						<linearGradient id="SVGID_85_" gradientUnits="userSpaceOnUse" x1="185.9062" y1="410.1426" x2="272.833" y2="410.1426" gradientTransform="matrix(1 0 0 1 0 -179)">
						<stop  offset="0" style="stop-color:#000000"/>
						<stop  offset="1" style="stop-color:#FFFFFF"/>
					</linearGradient>
					<path clip-path="url(#SVGID_84_)" fill="url(#SVGID_85_)" d="M239.163,255.415l-53.257-28.973
						c10.728-7.421,21.96-14.016,33.667-19.571l53.26,28.972C261.132,241.398,249.892,247.996,239.163,255.415"/>
				</g>
			</g>
		</g>
		<g enable-background="new    ">
			<g>
				
					<linearGradient id="SVGID_86_" gradientUnits="userSpaceOnUse" x1="85.4282" y1="536.5723" x2="134.9965" y2="563.9296" gradientTransform="matrix(1 0 0 1 0 -179)">
					<stop  offset="0" style="stop-color:#000000"/>
					<stop  offset="1" style="stop-color:#FFFFFF"/>
				</linearGradient>
				<path id="SVGID_64_" fill="url(#SVGID_86_)" d="M131.795,407.514l-53.258-28.973c3.933-14.026,8.979-27.662,15.018-40.825
					l53.261,28.966C140.777,379.851,135.728,393.49,131.795,407.514z"/>
			</g>
			<g>
				<g>
					<defs>
						<path id="SVGID_87_" d="M131.795,407.514l-53.258-28.973c3.933-14.026,8.979-27.662,15.018-40.825l53.261,28.966
							C140.777,379.851,135.728,393.49,131.795,407.514z"/>
					</defs>
					<clipPath id="SVGID_88_">
						<use xlink:href="#SVGID_87_"  overflow="visible"/>
					</clipPath>
					
						<linearGradient id="SVGID_90_" gradientUnits="userSpaceOnUse" x1="80.1587" y1="546.1025" x2="129.7321" y2="573.463" gradientTransform="matrix(1 0 0 1 0 -179)">
						<stop  offset="0" style="stop-color:#000000"/>
						<stop  offset="1" style="stop-color:#FFFFFF"/>
					</linearGradient>
					<path clip-path="url(#SVGID_88_)" fill="url(#SVGID_90_)" d="M131.795,407.514l-53.258-28.973
						c1.95-6.957,4.173-13.814,6.66-20.569l53.257,28.973C135.97,393.692,133.745,400.557,131.795,407.514"/>
				</g>
			</g>
			<g>
				<g>
					<defs>
						<path id="SVGID_91_" d="M131.795,407.514l-53.258-28.973c3.933-14.026,8.979-27.662,15.018-40.825l53.261,28.966
							C140.777,379.851,135.728,393.49,131.795,407.514z"/>
					</defs>
					<clipPath id="SVGID_92_">
						<use xlink:href="#SVGID_91_"  overflow="visible"/>
					</clipPath>
					
						<linearGradient id="SVGID_93_" gradientUnits="userSpaceOnUse" x1="90.5527" y1="527.2773" x2="140.1197" y2="554.6338" gradientTransform="matrix(1 0 0 1 0 -179)">
						<stop  offset="0" style="stop-color:#000000"/>
						<stop  offset="1" style="stop-color:#FFFFFF"/>
					</linearGradient>
					<path clip-path="url(#SVGID_92_)" fill="url(#SVGID_93_)" d="M138.458,386.944l-53.257-28.973
						c2.523-6.871,5.316-13.622,8.358-20.255l53.26,28.966C143.772,373.325,140.978,380.076,138.458,386.944"/>
				</g>
			</g>
		</g>
		<g enable-background="new    ">
			<g>
				
					<linearGradient id="SVGID_94_" gradientUnits="userSpaceOnUse" x1="156.2817" y1="414.915" x2="236.9185" y2="414.915" gradientTransform="matrix(1 0 0 1 0 -179)">
					<stop  offset="0" style="stop-color:#000000"/>
					<stop  offset="1" style="stop-color:#FFFFFF"/>
				</linearGradient>
				<path id="SVGID_69_" fill="url(#SVGID_94_)" d="M209.542,243.813l-53.261-28.973c9.266,4.241,18.406,8.639,27.378,13.173
					l53.258,28.976C227.946,252.455,218.812,248.048,209.542,243.813z"/>
			</g>
			<g>
				<g>
					<defs>
						<path id="SVGID_95_" d="M209.542,243.813l-53.261-28.973c9.266,4.241,18.406,8.639,27.378,13.173l53.258,28.976
							C227.946,252.455,218.812,248.048,209.542,243.813z"/>
					</defs>
					<clipPath id="SVGID_96_">
						<use xlink:href="#SVGID_95_"  overflow="visible"/>
					</clipPath>
					
						<linearGradient id="SVGID_97_" gradientUnits="userSpaceOnUse" x1="156.2817" y1="413.0469" x2="229.4263" y2="413.0469" gradientTransform="matrix(1 0 0 1 0 -179)">
						<stop  offset="0" style="stop-color:#000000"/>
						<stop  offset="1" style="stop-color:#FFFFFF"/>
					</linearGradient>
					<path clip-path="url(#SVGID_96_)" fill="url(#SVGID_97_)" d="M209.542,243.813l-53.261-28.973
						c6.704,3.065,13.336,6.211,19.885,9.438l53.26,28.976C222.878,250.027,216.241,246.878,209.542,243.813"/>
				</g>
			</g>
			<g>
				<g>
					<defs>
						<path id="SVGID_98_" d="M209.542,243.813l-53.261-28.973c9.266,4.241,18.406,8.639,27.378,13.173l53.258,28.976
							C227.946,252.455,218.812,248.048,209.542,243.813z"/>
					</defs>
					<clipPath id="SVGID_99_">
						<use xlink:href="#SVGID_98_"  overflow="visible"/>
					</clipPath>
					
						<linearGradient id="SVGID_100_" gradientUnits="userSpaceOnUse" x1="176.1665" y1="419.6338" x2="236.9185" y2="419.6338" gradientTransform="matrix(1 0 0 1 0 -179)">
						<stop  offset="0" style="stop-color:#000000"/>
						<stop  offset="1" style="stop-color:#FFFFFF"/>
					</linearGradient>
					<path clip-path="url(#SVGID_99_)" fill="url(#SVGID_100_)" d="M229.426,253.254l-53.26-28.976
						c2.51,1.231,5.01,2.478,7.494,3.735l53.258,28.976C234.433,255.731,231.933,254.485,229.426,253.254"/>
				</g>
			</g>
		</g>
		<g enable-background="new    ">
			<g>
				
					<linearGradient id="SVGID_101_" gradientUnits="userSpaceOnUse" x1="48.0947" y1="578.5898" x2="131.7954" y2="578.5898" gradientTransform="matrix(1 0 0 1 0 -179)">
					<stop  offset="0" style="stop-color:#000000"/>
					<stop  offset="1" style="stop-color:#FFFFFF"/>
				</linearGradient>
				<path id="SVGID_74_" fill="url(#SVGID_101_)" d="M101.353,420.644l-53.258-28.973c10.169-4.57,20.305-8.938,30.443-13.133
					l53.258,28.972C121.66,411.712,111.521,416.073,101.353,420.644z"/>
			</g>
			<g>
				<g>
					<defs>
						<path id="SVGID_102_" d="M101.353,420.644l-53.258-28.973c10.169-4.57,20.305-8.938,30.443-13.133l53.258,28.972
							C121.66,411.712,111.521,416.073,101.353,420.644z"/>
					</defs>
					<clipPath id="SVGID_103_">
						<use xlink:href="#SVGID_102_"  overflow="visible"/>
					</clipPath>
					
						<linearGradient id="SVGID_104_" gradientUnits="userSpaceOnUse" x1="48.0947" y1="578.5898" x2="131.7954" y2="578.5898" gradientTransform="matrix(1 0 0 1 0 -179)">
						<stop  offset="0" style="stop-color:#000000"/>
						<stop  offset="1" style="stop-color:#FFFFFF"/>
					</linearGradient>
					<path clip-path="url(#SVGID_103_)" fill="url(#SVGID_104_)" d="M101.353,420.644l-53.258-28.973
						c10.169-4.57,20.305-8.938,30.443-13.133l53.258,28.972C121.66,411.712,111.521,416.073,101.353,420.644"/>
				</g>
			</g>
		</g>
		<g enable-background="new    ">
			<g>
				
					<linearGradient id="SVGID_105_" gradientUnits="userSpaceOnUse" x1="42.0771" y1="644.918" x2="101.356" y2="644.918" gradientTransform="matrix(1 0 0 1 0 -179)">
					<stop  offset="0" style="stop-color:#000000"/>
					<stop  offset="1" style="stop-color:#FFFFFF"/>
				</linearGradient>
				<path id="SVGID_78_" fill="url(#SVGID_105_)" d="M101.132,540.158l-53.258-28.973c-3.815-19.979-5.834-39.084-5.797-58.909
					c0.036-19.853,2.134-39.541,6.022-60.599l53.256,28.972c-3.886,21.062-5.985,40.747-6.021,60.599
					C95.297,501.073,97.32,520.182,101.132,540.158z"/>
			</g>
			<g>
				<g>
					<defs>
						<path id="SVGID_106_" d="M101.132,540.158l-53.258-28.973c-3.815-19.979-5.834-39.084-5.797-58.909
							c0.036-19.853,2.134-39.541,6.022-60.599l53.256,28.972c-3.886,21.062-5.985,40.747-6.021,60.599
							C95.297,501.073,97.32,520.182,101.132,540.158z"/>
					</defs>
					<clipPath id="SVGID_107_">
						<use xlink:href="#SVGID_106_"  overflow="visible"/>
					</clipPath>
					
						<linearGradient id="SVGID_108_" gradientUnits="userSpaceOnUse" x1="42.0771" y1="644.918" x2="101.356" y2="644.918" gradientTransform="matrix(1 0 0 1 0 -179)">
						<stop  offset="0" style="stop-color:#000000"/>
						<stop  offset="1" style="stop-color:#FFFFFF"/>
					</linearGradient>
					<path clip-path="url(#SVGID_107_)" fill="url(#SVGID_108_)" d="M101.132,540.158l-53.258-28.973
						c-3.815-19.979-5.834-39.084-5.797-58.909c0.036-19.853,2.134-39.541,6.022-60.599l53.256,28.972
						c-3.886,21.062-5.985,40.747-6.021,60.599C95.297,501.073,97.32,520.182,101.132,540.158"/>
				</g>
			</g>
		</g>
		<g enable-background="new    ">
			<g>
				
					<linearGradient id="SVGID_109_" gradientUnits="userSpaceOnUse" x1="105.4722" y1="435.5127" x2="168.9876" y2="469.715" gradientTransform="matrix(1 0 0 1 0 -179)">
					<stop  offset="0" style="stop-color:#000000"/>
					<stop  offset="1" style="stop-color:#FFFFFF"/>
				</linearGradient>
				<path id="SVGID_82_" fill="url(#SVGID_109_)" d="M131.094,339.346l-53.257-28.972c10.782-18.939,22.041-35.814,35.062-51.667
					c13.048-15.859,27.215-29.996,43.383-43.87l53.261,28.973c-16.171,13.874-30.338,28.014-43.387,43.869
					C153.135,303.528,141.879,320.403,131.094,339.346z"/>
			</g>
			<g>
				<g>
					<defs>
						<path id="SVGID_110_" d="M131.094,339.346l-53.257-28.972c10.782-18.939,22.041-35.814,35.062-51.667
							c13.048-15.859,27.215-29.996,43.383-43.87l53.261,28.973c-16.171,13.874-30.338,28.014-43.387,43.869
							C153.135,303.528,141.879,320.403,131.094,339.346z"/>
					</defs>
					<clipPath id="SVGID_111_">
						<use xlink:href="#SVGID_110_"  overflow="visible"/>
					</clipPath>
					
						<linearGradient id="SVGID_112_" gradientUnits="userSpaceOnUse" x1="85.6641" y1="472.2891" x2="149.1828" y2="506.4933" gradientTransform="matrix(1 0 0 1 0 -179)">
						<stop  offset="0" style="stop-color:#000000"/>
						<stop  offset="1" style="stop-color:#FFFFFF"/>
					</linearGradient>
					<path clip-path="url(#SVGID_111_)" fill="url(#SVGID_112_)" d="M131.094,339.346l-53.257-28.972
						c6.459-11.344,13.084-21.949,20.161-32.037l53.258,28.972C144.182,317.401,137.553,328.002,131.094,339.346"/>
				</g>
			</g>
			<g>
				<g>
					<defs>
						<path id="SVGID_113_" d="M131.094,339.346l-53.257-28.972c10.782-18.939,22.041-35.814,35.062-51.667
							c13.048-15.859,27.215-29.996,43.383-43.87l53.261,28.973c-16.171,13.874-30.338,28.014-43.387,43.869
							C153.135,303.528,141.879,320.403,131.094,339.346z"/>
					</defs>
					<clipPath id="SVGID_114_">
						<use xlink:href="#SVGID_113_"  overflow="visible"/>
					</clipPath>
					
						<linearGradient id="SVGID_115_" gradientUnits="userSpaceOnUse" x1="102.9917" y1="440.0996" x2="166.5143" y2="474.3059" gradientTransform="matrix(1 0 0 1 0 -179)">
						<stop  offset="0" style="stop-color:#000000"/>
						<stop  offset="1" style="stop-color:#FFFFFF"/>
					</linearGradient>
					<path clip-path="url(#SVGID_114_)" fill="url(#SVGID_115_)" d="M151.259,307.309l-53.257-28.972
						c4.736-6.75,9.676-13.273,14.9-19.63c2.395-2.908,4.825-5.76,7.297-8.561l53.261,28.973c-2.473,2.8-4.906,5.652-7.301,8.56
						C160.935,294.043,155.995,300.559,151.259,307.309"/>
				</g>
			</g>
			<g>
				<g>
					<defs>
						<path id="SVGID_116_" d="M131.094,339.346l-53.257-28.972c10.782-18.939,22.041-35.814,35.062-51.667
							c13.048-15.859,27.215-29.996,43.383-43.87l53.261,28.973c-16.171,13.874-30.338,28.014-43.387,43.869
							C153.135,303.528,141.879,320.403,131.094,339.346z"/>
					</defs>
					<clipPath id="SVGID_117_">
						<use xlink:href="#SVGID_116_"  overflow="visible"/>
					</clipPath>
					
						<linearGradient id="SVGID_118_" gradientUnits="userSpaceOnUse" x1="120.5259" y1="407.54" x2="184.0128" y2="441.7269" gradientTransform="matrix(1 0 0 1 0 -179)">
						<stop  offset="0" style="stop-color:#000000"/>
						<stop  offset="1" style="stop-color:#FFFFFF"/>
					</linearGradient>
					<path clip-path="url(#SVGID_117_)" fill="url(#SVGID_118_)" d="M173.457,279.119l-53.261-28.973
						c8.839-10.007,18.228-19.395,28.413-28.561l53.261,28.973C191.68,259.724,182.291,269.112,173.457,279.119"/>
				</g>
			</g>
			<g>
				<g>
					<defs>
						<path id="SVGID_119_" d="M131.094,339.346l-53.257-28.972c10.782-18.939,22.041-35.814,35.062-51.667
							c13.048-15.859,27.215-29.996,43.383-43.87l53.261,28.973c-16.171,13.874-30.338,28.014-43.387,43.869
							C153.135,303.528,141.879,320.403,131.094,339.346z"/>
					</defs>
					<clipPath id="SVGID_120_">
						<use xlink:href="#SVGID_119_"  overflow="visible"/>
					</clipPath>
					
						<linearGradient id="SVGID_121_" gradientUnits="userSpaceOnUse" x1="131.958" y1="386.3242" x2="195.4773" y2="420.5286" gradientTransform="matrix(1 0 0 1 0 -179)">
						<stop  offset="0" style="stop-color:#000000"/>
						<stop  offset="1" style="stop-color:#FFFFFF"/>
					</linearGradient>
					<path clip-path="url(#SVGID_120_)" fill="url(#SVGID_121_)" d="M201.869,250.558l-53.261-28.973
						c2.51-2.263,5.071-4.508,7.677-6.748l53.261,28.973C206.933,246.053,204.376,248.302,201.869,250.558"/>
				</g>
			</g>
		</g>
		<g enable-background="new    ">
			<g>
				
					<linearGradient id="SVGID_122_" gradientUnits="userSpaceOnUse" x1="77.8369" y1="517.5273" x2="146.8164" y2="517.5273" gradientTransform="matrix(1 0 0 1 0 -179)">
					<stop  offset="0" style="stop-color:#000000"/>
					<stop  offset="1" style="stop-color:#FFFFFF"/>
				</linearGradient>
				<path id="SVGID_89_" fill="url(#SVGID_122_)" d="M146.816,366.682l-53.261-28.973c-5.376-8.938-10.604-18.046-15.718-27.335
					l53.257,28.972C136.212,348.639,141.436,357.751,146.816,366.682z"/>
			</g>
			<g>
				<g>
					<defs>
						<path id="SVGID_123_" d="M146.816,366.682l-53.261-28.973c-5.376-8.938-10.604-18.046-15.718-27.335l53.257,28.972
							C136.212,348.639,141.436,357.751,146.816,366.682z"/>
					</defs>
					<clipPath id="SVGID_124_">
						<use xlink:href="#SVGID_123_"  overflow="visible"/>
					</clipPath>
					
						<linearGradient id="SVGID_125_" gradientUnits="userSpaceOnUse" x1="77.8369" y1="517.5273" x2="146.8164" y2="517.5273" gradientTransform="matrix(1 0 0 1 0 -179)">
						<stop  offset="0" style="stop-color:#000000"/>
						<stop  offset="1" style="stop-color:#FFFFFF"/>
					</linearGradient>
					<path clip-path="url(#SVGID_124_)" fill="url(#SVGID_125_)" d="M146.816,366.682l-53.261-28.973
						c-5.376-8.938-10.604-18.046-15.718-27.335l53.257,28.972C136.212,348.639,141.436,357.751,146.816,366.682"/>
				</g>
			</g>
		</g>
		
			<radialGradient id="SVGID_126_" cx="162.394" cy="499.6738" r="354.0245" gradientTransform="matrix(1 0 0 1 0 -179)" gradientUnits="userSpaceOnUse">
			<stop  offset="0" style="stop-color:#FFFFFF"/>
			<stop  offset="1" style="stop-color:#3F3F3F"/>
		</radialGradient>
		<path fill="url(#SVGID_126_)" d="M570.631,474.175c-10.167,4.603-20.334,8.975-30.474,13.143c0.547-1.946,1.055-3.905,1.548-5.867
			c-4.113,16.097-9.694,31.73-16.533,46.692c5.353,8.938,10.601,18.04,15.719,27.332c-10.78,18.977-22.064,35.815-35.091,51.697
			c-13.017,15.854-27.19,29.962-43.385,43.841c-9.263-4.238-18.368-8.61-27.336-13.177c-14.173,10.014-29.252,18.541-45.075,25.223
			c3.077-1.303,6.129-2.62,9.154-4.055c-2.589,11.298-5.341,22.615-8.277,33.998c-19.046,6.833-36.99,11.573-55.387,14.161
			c-18.371,2.576-36.333,2.881-55.336,1.401c-2.92-10.555-5.626-21.109-8.146-31.689c3.019,0.585,6.066,1.08,9.167,1.511
			c-15.827-2.241-30.883-6.551-45.022-12.602c-8.988,7.092-18.123,14.031-27.411,20.883c-16.153-9.337-30.272-19.461-43.274-31.659
			c-12.967-12.227-24.167-25.911-34.884-41.839c5.15-10.737,10.438-21.317,15.828-31.795c-7.177-13.743-12.932-28.634-17.016-44.488
			c0.676,2.653,1.388,5.267,2.142,7.859c-10.126-1.32-20.254-2.84-30.409-4.584c-3.812-19.979-5.835-39.085-5.797-58.905
			c0.036-19.859,2.135-39.545,6.021-60.606c10.168-4.565,20.308-8.938,30.442-13.129c3.933-14.03,8.979-27.669,15.021-40.832
			c-5.379-8.938-10.606-18.043-15.722-27.336c10.782-18.942,22.041-35.812,35.062-51.667c13.049-15.855,27.216-29.992,43.388-43.869
			c9.266,4.237,18.402,8.638,27.375,13.175c11.401-8.064,23.391-15.203,35.915-21.145c2.559-11.296,5.306-22.646,8.243-34.022
			c19.043-6.8,37.015-11.546,55.387-14.128c18.396-2.585,36.335-2.884,55.363-1.434c2.895,10.555,5.604,21.136,8.146,31.718
			c12.482,2.432,24.445,6.199,35.853,11.057c8.991-7.061,18.125-14.029,27.413-20.875c16.15,9.329,30.279,19.493,43.242,31.691
			c12.971,12.198,24.2,25.915,34.916,41.829c-5.151,10.737-10.439,21.321-15.829,31.799c5.964,11.425,10.997,23.675,14.844,36.636
			c10.132,1.317,20.285,2.836,30.438,4.551c3.788,19.979,5.81,39.083,5.771,58.938C576.587,433.435,574.493,453.117,570.631,474.175
			z M335.866,508.03c31.013-4.361,56.204-35.019,56.264-68.494c0.065-33.483-25.025-57.077-56.039-52.715
			c-30.989,4.354-56.203,35.016-56.263,68.497C279.766,488.797,304.879,512.388,335.866,508.03"/>
	</g>
	<g>
		<g>
			<g>
				
					<linearGradient id="SVGID_127_" gradientUnits="userSpaceOnUse" x1="50.1445" y1="551.1689" x2="576.959" y2="689.0665" gradientTransform="matrix(1 0 0 1 0 -179)">
					<stop  offset="0" style="stop-color:#FFFFFF"/>
					<stop  offset="1" style="stop-color:#000000"/>
				</linearGradient>
				<path fill="url(#SVGID_127_)" d="M335.146,215.783c118.136-16.605,213.713,73.311,213.479,200.812
					c-0.238,127.501-96.204,244.339-214.34,260.937c-118.13,16.607-213.713-73.313-213.476-200.814
					C121.048,349.22,217.018,232.384,335.146,215.783z M334.341,648.678C437.713,634.142,521.678,531.924,521.89,420.35
					c0.204-111.566-83.423-190.236-186.796-175.711c-103.371,14.532-187.336,116.75-187.546,228.324
					C147.344,584.536,230.969,663.202,334.341,648.678"/>
			</g>
		</g>
	</g>
	<g>
		
			<radialGradient id="SVGID_128_" cx="197.3091" cy="512.1816" r="345.499" gradientTransform="matrix(1 0 0 1 0 -179)" gradientUnits="userSpaceOnUse">
			<stop  offset="0" style="stop-color:#FFFFFF"/>
			<stop  offset="1" style="stop-color:#000000"/>
		</radialGradient>
		<path fill="url(#SVGID_128_)" d="M335.094,244.641c103.373-14.528,187,64.142,186.796,175.715
			c-0.205,111.574-84.177,213.792-187.549,228.321c-103.368,14.53-186.997-64.139-186.79-175.716
			C147.758,361.388,231.723,259.17,335.094,244.641z M334.605,507.268c31.017-4.361,56.2-35.049,56.263-68.497
			c0.061-33.478-25.021-57.074-56.037-52.713c-31.017,4.361-56.202,35.016-56.263,68.5
			C278.509,487.999,303.589,511.623,334.605,507.268"/>
		
			<radialGradient id="SVGID_129_" cx="334.7197" cy="625.6631" r="162.2807" gradientTransform="matrix(1 0 0 1 0 -179)" gradientUnits="userSpaceOnUse">
			<stop  offset="0" style="stop-color:#FFFFFF"/>
			<stop  offset="1" style="stop-color:#000000"/>
		</radialGradient>
		<path fill="url(#SVGID_129_)" d="M339.735,277.698L339.735,277.698c-87.39,12.279-158.629,99.907-158.806,195.329
			c-0.087,46.695,16.813,87.171,47.589,113.973c27.312,23.789,63.244,33.956,101.18,28.628
			c87.393-12.288,158.63-99.912,158.811-195.334c0.082-46.695-16.816-87.174-47.596-113.975
			C413.602,282.529,377.672,272.372,339.735,277.698z M330.188,353.001c24.024-3.377,47.074,3.312,64.891,18.831
			c18.585,16.188,29.22,40.609,29.169,67c-0.092,50.22-37.431,94.8-84.997,101.488c-24.021,3.378-47.067-3.311-64.884-18.834
			c-18.593-16.193-29.227-40.616-29.177-66.997l0,0C245.282,404.261,282.618,359.687,330.188,353.001z"/>
	</g>
</g>
</svg>
