<?xml version="1.0" encoding="utf-8"?>
<!DOCTYPE svg PUBLIC "-//W3C//DTD SVG 1.1//EN" "http://www.w3.org/Graphics/SVG/1.1/DTD/svg11.dtd">
<svg version="1.1" id="Ebene_1" xmlns="http://www.w3.org/2000/svg" xmlns:xlink="http://www.w3.org/1999/xlink" x="0px" y="0px"
	 viewBox="-430.7586 -421.3527 1061.3224 1035.3236" enable-background="new -430.7586 -421.3527 1061.3224 1035.3236"
	 xml:space="preserve">
<g>
	
		<radialGradient id="SVGID_1_" cx="119.9347" cy="154.8845" r="477.8875" gradientTransform="matrix(1 0 0 -1 0 190)" gradientUnits="userSpaceOnUse">
		<stop  offset="0.7022" style="stop-color:#003C4A"/>
		<stop  offset="0.7658" style="stop-color:#005560"/>
		<stop  offset="0.9005" style="stop-color:#009699"/>
		<stop  offset="0.9382" style="stop-color:#00A9AA"/>
	</radialGradient>
	<path fill="url(#SVGID_1_)" d="M-57.6815-400.2742c-27.1486,3.9704-72.8345,19.2012-103.0069,74.984
		c-39.6514,73.288-58.3333,104.3018-58.3333,104.3018L-5.6193-88.5584L97.6966-288.6297
		c-9.4527-16.4666-19.0237-36.4764-33.3408-56.5322C28.6222-395.2849-20.8238-400.9315-57.6815-400.2742z"/>
	
		<radialGradient id="SVGID_2_" cx="-2285.4163" cy="172.5665" r="477.9006" gradientTransform="matrix(-0.5 -0.866 -0.866 0.5 -936.605 -1973.516)" gradientUnits="userSpaceOnUse">
		<stop  offset="0.7022" style="stop-color:#003C4A"/>
		<stop  offset="0.7658" style="stop-color:#005560"/>
		<stop  offset="0.9005" style="stop-color:#009699"/>
		<stop  offset="0.9382" style="stop-color:#00A9AA"/>
	</radialGradient>
	<path fill="url(#SVGID_2_)" d="M-230.4662,462.2621c17.0188,21.5217,53.0613,53.4821,116.4563,51.7072
		c83.2929-2.3008,119.4801-1.6236,119.4801-1.6236l7.9934-251.0292l-224.9389,10.5637
		c-9.5381,16.4206-22.0475,34.7082-32.2759,57.1172c-25.5315,56.0063-5.7124,101.6922,13.285,133.2451L-230.4662,462.2621z"/>
	
		<radialGradient id="SVGID_3_" cx="-1069.6917" cy="2246.2388" r="477.894" gradientTransform="matrix(-0.5 0.866 0.866 0.5 -2341.8201 -81.183)" gradientUnits="userSpaceOnUse">
		<stop  offset="0.7022" style="stop-color:#003C4A"/>
		<stop  offset="0.7658" style="stop-color:#005560"/>
		<stop  offset="0.9005" style="stop-color:#009699"/>
		<stop  offset="0.9382" style="stop-color:#00A9AA"/>
	</radialGradient>
	<path fill="url(#SVGID_3_)" d="M602.8903,180.653c10.1364-25.5052,19.7731-72.6898-13.4363-126.7044
		c-43.6612-71.0005-61.1796-102.6651-61.1796-102.6651L306.8983,69.8631L428.5476,259.397
		c18.9645,0.0329,41.0647,1.7486,65.5839-0.6048c61.265-5.9162,90.9116-45.9488,108.7258-78.159L602.8903,180.653z"/>
	
		<linearGradient id="SVGID_4_" gradientUnits="userSpaceOnUse" x1="240.9135" y1="264.0047" x2="240.9135" y2="599.0367" gradientTransform="matrix(1 0 0 -1 0 190)">
		<stop  offset="0.7079" style="stop-color:#80C242"/>
		<stop  offset="0.7215" style="stop-color:#84C448"/>
		<stop  offset="0.7391" style="stop-color:#8FC958"/>
		<stop  offset="0.7589" style="stop-color:#A1D273"/>
		<stop  offset="0.7804" style="stop-color:#BADE98"/>
		<stop  offset="0.8031" style="stop-color:#DAEDC7"/>
		<stop  offset="0.8258" style="stop-color:#FFFFFF"/>
		<stop  offset="0.8376" style="stop-color:#FDFEF9"/>
		<stop  offset="0.8528" style="stop-color:#F7FAE9"/>
		<stop  offset="0.8699" style="stop-color:#EEF5CE"/>
		<stop  offset="0.8884" style="stop-color:#E1ECA9"/>
		<stop  offset="0.9081" style="stop-color:#D0E279"/>
		<stop  offset="0.9284" style="stop-color:#BCD640"/>
		<stop  offset="0.9326" style="stop-color:#B7D333"/>
	</linearGradient>
	<path fill="url(#SVGID_4_)" d="M422.579-257.353c0,0-34.9776-63.8156-60.3842-97.4325
		c-25.3869-33.6301-46.672-46.6785-97.4391-46.6785H-0.4328c27.05,7.6187,53.9816,22.8693,71.6907,52.1411
		c11.6417,19.2407,125.554,216.8535,125.554,216.8535l-80.2822,41.1567l251.1474,0.6902L482.2599-296.472l-59.6874,39.119H422.579z"
		/>
	
		<linearGradient id="SVGID_5_" gradientUnits="userSpaceOnUse" x1="35.4268" y1="636.0589" x2="81.3888" y2="390.1308" gradientTransform="matrix(1 0 0 -1 0 190)">
		<stop  offset="0.1236" style="stop-color:#00A9AA"/>
		<stop  offset="0.1382" style="stop-color:#06ABAC"/>
		<stop  offset="0.157" style="stop-color:#16B0B1"/>
		<stop  offset="0.1782" style="stop-color:#31B9BA"/>
		<stop  offset="0.2012" style="stop-color:#56C6C7"/>
		<stop  offset="0.2255" style="stop-color:#86D6D7"/>
		<stop  offset="0.2506" style="stop-color:#BFE9EA"/>
		<stop  offset="0.2753" style="stop-color:#FFFFFF"/>
		<stop  offset="0.2871" style="stop-color:#F9FDFD"/>
		<stop  offset="0.3025" style="stop-color:#E9F8F8"/>
		<stop  offset="0.3198" style="stop-color:#CEEFEF"/>
		<stop  offset="0.3385" style="stop-color:#A9E2E2"/>
		<stop  offset="0.3583" style="stop-color:#79D2D2"/>
		<stop  offset="0.3788" style="stop-color:#40BFBF"/>
		<stop  offset="0.3989" style="stop-color:#00A9AA"/>
		<stop  offset="0.4941" style="stop-color:#00A3A5"/>
		<stop  offset="0.6173" style="stop-color:#009397"/>
		<stop  offset="0.7558" style="stop-color:#007980"/>
		<stop  offset="0.9044" style="stop-color:#005460"/>
		<stop  offset="1" style="stop-color:#003848"/>
	</linearGradient>
	<path fill="url(#SVGID_5_)" d="M196.9105-132.3709c-1.8406-3.037-93.4622-161.8201-116.5286-202.6481
		c-23.2768-41.2225-40.3219-50.2808-67.9175-62.5404c-27.5956-12.2596-71.2963-2.3467-71.2963-2.3467s27.589-3.1487,59.1419,8.1643
		c24.3022,8.6902,50.4057,28.7459,66.445,55.7631c37.206,62.6521,38.0014,66.4976,118.8096,209.2216l11.3722-5.6138H196.9105z"/>
	
		<linearGradient id="SVGID_6_" gradientUnits="userSpaceOnUse" x1="92.8804" y1="323.272" x2="294.0034" y2="257.767" gradientTransform="matrix(1 0 0 -1 0 190)">
		<stop  offset="0.3989" style="stop-color:#00717A"/>
		<stop  offset="0.5439" style="stop-color:#006B75"/>
		<stop  offset="0.7316" style="stop-color:#005B67"/>
		<stop  offset="0.9417" style="stop-color:#004150"/>
		<stop  offset="1" style="stop-color:#003848"/>
	</linearGradient>
	<polygon fill="url(#SVGID_6_)" points="117.1738,-91.2142 115.2675,-78.6982 357.7642,-77.0416 367.9531,-90.9644 	"/>
	
		<linearGradient id="SVGID_7_" gradientUnits="userSpaceOnUse" x1="23.7755" y1="262.5669" x2="-384.6102" y2="-22.3815" gradientTransform="matrix(1 0 0 -1 0 190)">
		<stop  offset="0.7865" style="stop-color:#80C242"/>
		<stop  offset="0.7995" style="stop-color:#84C448"/>
		<stop  offset="0.8163" style="stop-color:#8FC958"/>
		<stop  offset="0.8352" style="stop-color:#A1D273"/>
		<stop  offset="0.8556" style="stop-color:#BADE98"/>
		<stop  offset="0.8772" style="stop-color:#DAEDC7"/>
		<stop  offset="0.8989" style="stop-color:#FFFFFF"/>
		<stop  offset="0.9069" style="stop-color:#FDFEF9"/>
		<stop  offset="0.9173" style="stop-color:#F7FAE9"/>
		<stop  offset="0.929" style="stop-color:#EEF5CE"/>
		<stop  offset="0.9417" style="stop-color:#E1ECA9"/>
		<stop  offset="0.9551" style="stop-color:#D0E279"/>
		<stop  offset="0.969" style="stop-color:#BCD640"/>
		<stop  offset="0.9719" style="stop-color:#B7D333"/>
	</linearGradient>
	<path fill="url(#SVGID_7_)" d="M-346.8107-25.0846c0,0-37.7714,62.2183-54.192,101.0019s-17.0648,63.7433,8.3155,107.7267
		l132.5811,229.6455c-6.9285-27.2209-7.1717-58.1821,9.3147-88.1441c10.8266-19.7139,125.015-217.1624,125.015-217.1624
		l75.7991,48.9332l-124.969-217.9118l-235.5814,3.6811l63.717,32.1576L-346.8107-25.0846z"/>
	
		<linearGradient id="SVGID_8_" gradientUnits="userSpaceOnUse" x1="-2369.7661" y1="653.7806" x2="-2323.7976" y2="407.8499" gradientTransform="matrix(-0.5 -0.866 -0.866 0.5 -936.605 -1973.516)">
		<stop  offset="0.3989" style="stop-color:#00A9AA"/>
		<stop  offset="0.4941" style="stop-color:#00A3A5"/>
		<stop  offset="0.6173" style="stop-color:#009397"/>
		<stop  offset="0.7558" style="stop-color:#007980"/>
		<stop  offset="0.9044" style="stop-color:#005460"/>
		<stop  offset="1" style="stop-color:#003848"/>
	</linearGradient>
	<path fill="url(#SVGID_8_)" d="M-125.7239,107.8185c-1.7223,3.1355-93.4161,161.8726-117.2516,202.2603
		c-24.0591,40.7492-23.382,60.049-20.2135,90.0899c3.175,30.0344,33.6103,62.9085,33.6103,62.9085s-16.5258-22.3236-22.5077-55.2964
		c-4.6146-25.3935-0.2958-58.0243,15.0862-85.4227c35.6613-63.5658,38.5865-66.1689,121.7874-207.506l-10.511-7.0534V107.8185z"/>
	
		<linearGradient id="SVGID_9_" gradientUnits="userSpaceOnUse" x1="-2312.9124" y1="339.6742" x2="-2111.7695" y2="274.1627" gradientTransform="matrix(-0.5 -0.866 -0.866 0.5 -936.605 -1973.516)">
		<stop  offset="0.3989" style="stop-color:#FFFFFF"/>
		<stop  offset="0.4566" style="stop-color:#F9FBFB"/>
		<stop  offset="0.5313" style="stop-color:#E9EEEF"/>
		<stop  offset="0.6153" style="stop-color:#CED9DC"/>
		<stop  offset="0.7063" style="stop-color:#A9BCC1"/>
		<stop  offset="0.8028" style="stop-color:#79979F"/>
		<stop  offset="0.9023" style="stop-color:#406A76"/>
		<stop  offset="1" style="stop-color:#003848"/>
	</linearGradient>
	<polygon fill="url(#SVGID_9_)" points="-50.2403,156.331 -38.4343,151.7295 -158.2562,-59.1157 -175.3933,-60.976 	"/>
	
		<linearGradient id="SVGID_10_" gradientUnits="userSpaceOnUse" x1="-947.1248" y1="2355.3723" x2="-947.1248" y2="2690.3838" gradientTransform="matrix(-0.5 0.866 0.866 0.5 -2341.8201 -81.183)">
		<stop  offset="0.7135" style="stop-color:#80C242"/>
		<stop  offset="0.7271" style="stop-color:#84C448"/>
		<stop  offset="0.7447" style="stop-color:#8FC958"/>
		<stop  offset="0.7646" style="stop-color:#A1D273"/>
		<stop  offset="0.786" style="stop-color:#BADE98"/>
		<stop  offset="0.8087" style="stop-color:#DAEDC7"/>
		<stop  offset="0.8315" style="stop-color:#FFFFFF"/>
		<stop  offset="0.8438" style="stop-color:#FDFEF9"/>
		<stop  offset="0.8599" style="stop-color:#F7FAE9"/>
		<stop  offset="0.8779" style="stop-color:#EEF5CE"/>
		<stop  offset="0.8974" style="stop-color:#E1ECA9"/>
		<stop  offset="0.918" style="stop-color:#D0E279"/>
		<stop  offset="0.9394" style="stop-color:#BCD640"/>
		<stop  offset="0.9438" style="stop-color:#B7D333"/>
	</linearGradient>
	<path fill="url(#SVGID_10_)" d="M239.0466,525.0391c0,0,72.7687,1.5974,114.5829-3.5694
		c41.8075-5.1799,63.7433-17.078,89.1039-61.0547l132.6008-229.6455c-20.1216,19.6219-46.7837,35.3063-80.9593,36.0163
		c-22.4814,0.4799-250.5821,0.3155-250.5821,0.3155l4.4634-90.1097L122.104,394.154l120.9723,202.1551l-4.0098-71.2568
		L239.0466,525.0391z"/>
	
		<linearGradient id="SVGID_11_" gradientUnits="userSpaceOnUse" x1="593.6931" y1="82.6733" x2="326.9402" y2="-115.1629" gradientTransform="matrix(1 0 0 -1 0 190)">
		<stop  offset="0.1798" style="stop-color:#00684F"/>
		<stop  offset="0.2957" style="stop-color:#006C55"/>
		<stop  offset="0.4456" style="stop-color:#007865"/>
		<stop  offset="0.6142" style="stop-color:#008B7F"/>
		<stop  offset="0.7952" style="stop-color:#00A5A4"/>
		<stop  offset="0.8202" style="stop-color:#00A9AA"/>
		<stop  offset="0.8375" style="stop-color:#06ABAC"/>
		<stop  offset="0.8598" style="stop-color:#16B0B1"/>
		<stop  offset="0.885" style="stop-color:#31B9BA"/>
		<stop  offset="0.9122" style="stop-color:#56C6C7"/>
		<stop  offset="0.941" style="stop-color:#86D6D7"/>
		<stop  offset="0.9708" style="stop-color:#BFE9EA"/>
		<stop  offset="1" style="stop-color:#FFFFFF"/>
	</linearGradient>
	<path fill="url(#SVGID_11_)" d="M243.5824,267.1604c3.576-0.0592,186.8915-0.0197,233.7803,0.4339
		c47.3227,0.4536,63.6973-9.7814,88.131-27.543c24.4205-17.7616,37.6793-60.5617,37.6793-60.5617s-11.0764,25.4526-36.6342,47.1123
		c-19.6943,16.723-50.1033,29.2784-81.5246,29.6794c-72.8805,0.894-76.5946-0.3484-240.597-1.7288l-0.8545,12.4897
		L243.5824,267.1604z"/>
	
		<linearGradient id="SVGID_12_" gradientUnits="userSpaceOnUse" x1="-1096.7485" y1="2414.6768" x2="-895.6321" y2="2349.1653" gradientTransform="matrix(-0.5 0.866 0.866 0.5 -2341.8201 -81.183)">
		<stop  offset="0.3989" style="stop-color:#00717A"/>
		<stop  offset="0.5439" style="stop-color:#006B75"/>
		<stop  offset="0.7316" style="stop-color:#005B67"/>
		<stop  offset="0.9417" style="stop-color:#004150"/>
		<stop  offset="1" style="stop-color:#003848"/>
	</linearGradient>
	<polygon fill="url(#SVGID_12_)" points="247.8552,177.4977 237.9292,169.6095 115.2675,378.7785 122.2354,394.5549 	"/>
</g>
</svg>
