<?xml version="1.0" encoding="UTF-8" standalone="no"?>
<!--part of the rodentia icon theme by sixsixfive released under CC0 (https://creativecommons.org/publicdomain/zero/1.0/) on openclipart-->
<svg xmlns="http://www.w3.org/2000/svg" xmlns:xlink="http://www.w3.org/1999/xlink" viewBox="0 0 48 48">
 <defs id="0">
  <linearGradient id="2">
   <stop id="J" stop-color="#d3d7cf"/>
   <stop id="K" offset="1" stop-color="#eeeeec"/>
  </linearGradient>
  <linearGradient id="3">
   <stop id="L" stop-color="#eeeeec"/>
   <stop id="M" offset="1" stop-color="#eeeeec" stop-opacity="0"/>
  </linearGradient>
  <linearGradient id="4">
   <stop id="N" stop-color="#2e3436"/>
   <stop id="O" offset="1" stop-color="#2e3436" stop-opacity="0"/>
  </linearGradient>
  <linearGradient id="5">
   <stop id="P" stop-color="#fff" stop-opacity="0.8"/>
   <stop id="Q" offset="1" stop-color="#fff" stop-opacity="0"/>
  </linearGradient>
  <linearGradient id="6">
   <stop id="R" stop-color="#eee"/>
   <stop id="S" offset="1" stop-color="#dcdcdc"/>
  </linearGradient>
  <radialGradient cx="24.377" cy="45.941" r="23.08" id="7" xlink:href="#4" gradientUnits="userSpaceOnUse" gradientTransform="matrix(1,0,0,0.1455399,0,39.255173)"/>
  <radialGradient cx="60.05" cy="51.39" r="15.03" id="8" xlink:href="#6" gradientUnits="userSpaceOnUse" gradientTransform="matrix(-1.404511,1.1888571,-1,-1.1813958,199.73811,11.750541)"/>
  <linearGradient y1="4.219" x2="0" y2="43.781" id="9" xlink:href="#5" gradientUnits="userSpaceOnUse"/>
  <radialGradient cx="16.362" cy="28.942" r="13.14" id="A" xlink:href="#2" gradientUnits="userSpaceOnUse" gradientTransform="matrix(1.3080842,-1.9832134,1.5510881,1.0230635,-42.293506,47.078193)"/>
  <linearGradient x1="4.094" y1="-58.01" x2="15.298" y2="33.906" id="B" xlink:href="#3" gradientUnits="userSpaceOnUse" gradientTransform="translate(0,-1.4999995)"/>
 </defs>
 <g id="1">
  <path d="m 47.453955,45.941494 a 23.076923,3.3586134 0 1 1 -46.153847,0 23.076923,3.3586134 0 1 1 46.153847,0 z" transform="translate(-0.37703133,-2.8001078)" id="C" opacity="0.8" fill="url(#7)"/>
  <rect width="42" height="42" x="3" y="1.5" id="D" fill="#2e3436" rx="6"/>
  <path d="M 9,4.09375 C 6.2608771,4.09375 4.09375,6.2608771 4.09375,9 l 0,30 c 0,2.739123 2.1671271,4.90625 4.90625,4.90625 l 30,0 c 2.739123,0 4.90625,-2.167127 4.90625,-4.90625 l 0,-30 C 43.90625,6.2608771 41.739123,4.09375 39,4.09375 l -30,0 z" transform="translate(0,-1.4999995)" id="E" fill="#555753"/>
  <path d="m 24,5.71875 c -6.508858,-0.0047 -11.74528,5.644663 -11.75,12.375 -1.7e-5,0.02155 4e-5,0.04147 0,0.0625 -1.396629,0.955111 -2.4375,2.427678 -2.4375,4.25 l 0,11.5 c 0,2.929763 2.364368,5.375 5.3125,5.375 l 17.71875,0 c 2.948133,-10e-7 5.34375,-2.436052 5.34375,-5.375 l 0,-11.5 c 2e-6,-1.836123 -1.049232,-3.325013 -2.46875,-4.28125 4e-6,-0.01118 -8e-6,-0.01963 0,-0.03125 C 35.723511,11.366589 30.506033,5.723298 24,5.71875 z M 23.90625,13 c 2.57908,0.0017 4.40778,1.818834 4.40625,4 l 0,0.0625 -8.875,0 0,-0.0625 c 0.0013,-2.161537 1.893924,-4.001801 4.46875,-4 z" id="F" stroke-width="1.5" fill="#2e3436"/>
  <path d="m 23.999999,6.7946177 c -5.900593,-0.00426 -10.67868,5.0975153 -10.683021,11.2877193 -1.28e-4,0.165184 -0.0011,0.307695 0,0.470322 -1.447686,0.689462 -2.452391,2.147449 -2.452391,3.863358 l 0,11.489285 c 0,2.380101 1.886388,4.300084 4.266488,4.300084 l 17.704252,0 c 2.380101,0 4.300085,-1.919983 4.300085,-4.300084 l 0,-11.489285 c 0,-1.732017 -1.016199,-3.21595 -2.485986,-3.896952 1.57e-4,-0.156366 -1.15e-4,-0.27257 0,-0.436728 0.0044,-6.188451 -4.750212,-11.2835955 -10.649427,-11.2877193 z m -0.100778,5.1399433 c 3.094394,0.0021 5.477837,2.293079 5.475887,5.072756 l 0,1.108615 -10.98537,0 0,-1.108615 c 0.0017,-2.775391 2.416445,-5.07492 5.509483,-5.072756 l 0,0 z" id="G" stroke-width="1.5" fill="url(#A)"/>
  <path d="M 9,4.71875 C 6.5943852,4.71875 4.71875,6.5943852 4.71875,9 l 0,30 c 0,2.405615 1.8756352,4.28125 4.28125,4.28125 l 30,0 c 2.405615,0 4.28125,-1.875635 4.28125,-4.28125 l 0,-30 C 43.28125,6.5943852 41.405615,4.71875 39,4.71875 l -30,0 z" transform="translate(0,-1.4999995)" id="H" opacity="0.8" fill="none" stroke="url(#9)" stroke-linecap="round" stroke-dashoffset="30"/>
  <path d="m 9,2.5937505 c -2.7391229,0 -4.90625,2.1671271 -4.90625,4.90625 l 0,17.1562505 c 12.085208,-5.133143 25.680845,-9.569523 39.8125,-12.53125 l 0,-4.6250005 c 0,-2.7391229 -2.167127,-4.90625 -4.90625,-4.90625 l -30,0 0,0 z" id="I" opacity="0.6" fill="url(#B)"/>
 </g>
</svg>
